G04 (created by PCBNEW (2013-may-18)-stable) date Wed 21 Oct 2015 08:45:46 PM EDT*
%MOIN*%
G04 Gerber Fmt 3.4, Leading zero omitted, Abs format*
%FSLAX34Y34*%
G01*
G70*
G90*
G04 APERTURE LIST*
%ADD10C,0.00590551*%
%ADD11R,0.036X0.036*%
%ADD12R,0.03X0.02*%
%ADD13R,0.02X0.03*%
%ADD14R,0.0236X0.0551*%
%ADD15R,0.11X0.19*%
%ADD16R,0.025X0.045*%
%ADD17R,0.045X0.025*%
%ADD18R,0.055X0.055*%
%ADD19C,0.055*%
%ADD20R,0.026X0.016*%
%ADD21R,0.06X0.06*%
%ADD22C,0.06*%
%ADD23R,0.0709X0.1378*%
%ADD24R,0.0354X0.0394*%
%ADD25R,0.0394X0.0354*%
%ADD26R,0.1X0.1*%
%ADD27C,0.1*%
%ADD28C,0.045*%
%ADD29R,0.106X0.063*%
%ADD30R,0.063X0.106*%
%ADD31C,0.16*%
G04 APERTURE END LIST*
G54D10*
G54D11*
X55299Y-56981D03*
X55999Y-56981D03*
X55649Y-57781D03*
G54D12*
X53826Y-48268D03*
X53826Y-47518D03*
X52826Y-48268D03*
X53826Y-47893D03*
X52826Y-47518D03*
X53767Y-45237D03*
X53767Y-44487D03*
X52767Y-45237D03*
X53767Y-44862D03*
X52767Y-44487D03*
X53728Y-51556D03*
X53728Y-50806D03*
X52728Y-51556D03*
X53728Y-51181D03*
X52728Y-50806D03*
X53748Y-54725D03*
X53748Y-53975D03*
X52748Y-54725D03*
X53748Y-54350D03*
X52748Y-53975D03*
X47295Y-45904D03*
X47295Y-46654D03*
X48295Y-45904D03*
X47295Y-46279D03*
X48295Y-46654D03*
X45287Y-45924D03*
X45287Y-46674D03*
X46287Y-45924D03*
X45287Y-46299D03*
X46287Y-46674D03*
G54D13*
X51762Y-42118D03*
X52512Y-42118D03*
X51762Y-41118D03*
X52137Y-42118D03*
X52512Y-41118D03*
G54D14*
X47360Y-53320D03*
X47360Y-55420D03*
X47860Y-53320D03*
X48360Y-53320D03*
X48860Y-53320D03*
X47860Y-55420D03*
X48360Y-55420D03*
X48860Y-55420D03*
G54D15*
X46604Y-49232D03*
X44104Y-49232D03*
G54D16*
X51855Y-53976D03*
X51255Y-53976D03*
X53085Y-41614D03*
X53685Y-41614D03*
G54D17*
X51909Y-52711D03*
X51909Y-53311D03*
G54D16*
X54739Y-54015D03*
X55339Y-54015D03*
G54D17*
X53740Y-53370D03*
X53740Y-52770D03*
X53897Y-43764D03*
X53897Y-43164D03*
G54D16*
X51933Y-44448D03*
X51333Y-44448D03*
X54562Y-50787D03*
X55162Y-50787D03*
G54D17*
X52007Y-49542D03*
X52007Y-50142D03*
G54D16*
X51855Y-50787D03*
X51255Y-50787D03*
G54D17*
X53700Y-50181D03*
X53700Y-49581D03*
X51811Y-43223D03*
X51811Y-43823D03*
G54D16*
X54562Y-44429D03*
X55162Y-44429D03*
G54D17*
X53818Y-46874D03*
X53818Y-46274D03*
G54D16*
X54778Y-47480D03*
X55378Y-47480D03*
G54D17*
X51948Y-46255D03*
X51948Y-46855D03*
G54D16*
X51992Y-47480D03*
X51392Y-47480D03*
X55929Y-56181D03*
X55329Y-56181D03*
X49700Y-52106D03*
X50300Y-52106D03*
X50300Y-52755D03*
X49700Y-52755D03*
X49700Y-53759D03*
X50300Y-53759D03*
G54D17*
X48740Y-56117D03*
X48740Y-56717D03*
G54D16*
X57701Y-57125D03*
X57101Y-57125D03*
X53685Y-40944D03*
X53085Y-40944D03*
G54D18*
X43606Y-40877D03*
G54D19*
X44606Y-40877D03*
X45606Y-40877D03*
X46606Y-40877D03*
X47606Y-40877D03*
X48606Y-40877D03*
X49606Y-40877D03*
X50606Y-40877D03*
G54D18*
X43606Y-41877D03*
G54D19*
X44606Y-41877D03*
X45606Y-41877D03*
X46606Y-41877D03*
X47606Y-41877D03*
X48606Y-41877D03*
X49606Y-41877D03*
X50606Y-41877D03*
G54D18*
X43606Y-42877D03*
G54D19*
X44606Y-42877D03*
X45606Y-42877D03*
X46606Y-42877D03*
X47606Y-42877D03*
X48606Y-42877D03*
X49606Y-42877D03*
X50606Y-42877D03*
G54D18*
X43606Y-43877D03*
G54D19*
X44606Y-43877D03*
X45606Y-43877D03*
X46606Y-43877D03*
X47606Y-43877D03*
X48606Y-43877D03*
X49606Y-43877D03*
X50606Y-43877D03*
G54D18*
X54669Y-40826D03*
G54D19*
X55669Y-40826D03*
X56669Y-40826D03*
G54D20*
X49147Y-47594D03*
X49147Y-48114D03*
X49147Y-47854D03*
X49947Y-48114D03*
X49947Y-47594D03*
X49947Y-47854D03*
X49147Y-45940D03*
X49147Y-46460D03*
X49147Y-46200D03*
X49947Y-46460D03*
X49947Y-45940D03*
X49947Y-46200D03*
G54D21*
X58759Y-56133D03*
G54D22*
X58759Y-57133D03*
G54D21*
X41818Y-56295D03*
G54D22*
X40818Y-56295D03*
X41818Y-55295D03*
X40818Y-55295D03*
X41818Y-54295D03*
X40818Y-54295D03*
X41818Y-53295D03*
X40818Y-53295D03*
X41818Y-52295D03*
X40818Y-52295D03*
X41818Y-51295D03*
X40818Y-51295D03*
X41818Y-50295D03*
X40818Y-50295D03*
X41818Y-49295D03*
X40818Y-49295D03*
X41818Y-48295D03*
X40818Y-48295D03*
X41818Y-47295D03*
X40818Y-47295D03*
X41818Y-46295D03*
X40818Y-46295D03*
X41818Y-45295D03*
X40818Y-45295D03*
X41818Y-44295D03*
X40818Y-44295D03*
G54D23*
X46003Y-54507D03*
X46003Y-52539D03*
G54D24*
X54782Y-41771D03*
X55374Y-41771D03*
X47264Y-56023D03*
X46672Y-56023D03*
X50276Y-54370D03*
X49684Y-54370D03*
X56003Y-41771D03*
X56595Y-41771D03*
X50276Y-54940D03*
X49684Y-54940D03*
G54D25*
X44783Y-54016D03*
X44783Y-53424D03*
X52460Y-43227D03*
X52460Y-43819D03*
X54547Y-43207D03*
X54547Y-43799D03*
X54389Y-52774D03*
X54389Y-53366D03*
X52559Y-52715D03*
X52559Y-53307D03*
X54350Y-49566D03*
X54350Y-50158D03*
X52657Y-49546D03*
X52657Y-50138D03*
X52618Y-46259D03*
X52618Y-46851D03*
X54468Y-46259D03*
X54468Y-46851D03*
G54D26*
X57992Y-47984D03*
G54D27*
X57992Y-45984D03*
X57992Y-43984D03*
G54D26*
X57992Y-54381D03*
G54D27*
X57992Y-52381D03*
X57992Y-50381D03*
G54D28*
X52657Y-42637D03*
X51003Y-49881D03*
X51062Y-45846D03*
G54D24*
X53089Y-42244D03*
X53681Y-42244D03*
G54D29*
X47480Y-51339D03*
X47480Y-52439D03*
X48759Y-51339D03*
X48759Y-52439D03*
G54D30*
X47479Y-56889D03*
X46379Y-56889D03*
G54D28*
X53582Y-56811D03*
X50669Y-47047D03*
X49035Y-49822D03*
X52677Y-55728D03*
X54074Y-55413D03*
G54D31*
X41161Y-41161D03*
X58838Y-58838D03*
X58838Y-41161D03*
X41161Y-58838D03*
M02*
