M48
;DRILL file {Pcbnew (2013-may-18)-stable} date Tue 20 Oct 2015 09:02:25 PM EDT
;FORMAT={-:-/ absolute / inch / decimal}
FMAT,2
INCH,TZ
T1C0.025
T2C0.032
T3C0.040
T4C0.060
T5C0.120
%
G90
G05
M72
T1
X4.2717Y-4.4232
X4.2913Y-4.5787
X4.4783Y-5.439
X4.4882Y-4.5079
X4.5276Y-4.5413
X4.5276Y-4.7047
X4.5335Y-5.5768
X4.5551Y-5.6535
X4.6339Y-4.628
X4.6811Y-5.5413
X4.7598Y-4.4744
X4.7638Y-4.7008
X4.8051Y-5.6516
X4.811Y-4.5531
X4.8661Y-4.811
X4.878Y-4.6654
X4.9035Y-4.9823
X4.9272Y-5.3031
X4.9665Y-4.5551
X4.998Y-4.6831
X4.998Y-4.8465
X5.0217Y-5.1614
X5.0354Y-4.622
X5.0394Y-4.7874
X5.0669Y-4.7047
X5.1004Y-4.9882
X5.1063Y-4.5846
X5.19Y-4.0679
X5.2106Y-4.2579
X5.2461Y-4.8957
X5.25Y-4.5787
X5.2657Y-4.2638
X5.2677Y-4.4941
X5.2677Y-5.5728
X5.2756Y-5.5059
X5.2835Y-4.8622
X5.2835Y-5.185
X5.3327Y-4.6555
X5.3406Y-4.3209
X5.3583Y-5.6811
X5.3642Y-5.5079
X5.4075Y-5.5413
X5.4154Y-5.1142
X5.4173Y-4.1654
X5.4173Y-5.3996
X5.4193Y-4.4862
X5.4232Y-4.7972
X5.4449Y-5.4429
X5.4665Y-4.2283
X5.4764Y-5.6988
X5.4783Y-5.6378
X5.4823Y-5.2795
X5.4843Y-4.9567
X5.494Y-4.6259
X5.5236Y-4.3327
X5.5571Y-5.0669
X5.561Y-5.1929
X5.5669Y-4.4409
X5.5728Y-4.2835
X5.5886Y-4.5512
X5.5886Y-4.7913
X5.5886Y-4.8661
T2
X4.3606Y-4.0878
X4.3606Y-4.1878
X4.3606Y-4.2878
X4.3606Y-4.3878
X4.4606Y-4.0878
X4.4606Y-4.1878
X4.4606Y-4.2878
X4.4606Y-4.3878
X4.5606Y-4.0878
X4.5606Y-4.1878
X4.5606Y-4.2878
X4.5606Y-4.3878
X4.6606Y-4.0878
X4.6606Y-4.1878
X4.6606Y-4.2878
X4.6606Y-4.3878
X4.7606Y-4.0878
X4.7606Y-4.1878
X4.7606Y-4.2878
X4.7606Y-4.3878
X4.8606Y-4.0878
X4.8606Y-4.1878
X4.8606Y-4.2878
X4.8606Y-4.3878
X4.9606Y-4.0878
X4.9606Y-4.1878
X4.9606Y-4.2878
X4.9606Y-4.3878
X5.0606Y-4.0878
X5.0606Y-4.1878
X5.0606Y-4.2878
X5.0606Y-4.3878
X5.4669Y-4.0827
X5.5669Y-4.0827
X5.6669Y-4.0827
T3
X4.0819Y-4.4295
X4.0819Y-4.5295
X4.0819Y-4.6295
X4.0819Y-4.7295
X4.0819Y-4.8295
X4.0819Y-4.9295
X4.0819Y-5.0295
X4.0819Y-5.1295
X4.0819Y-5.2295
X4.0819Y-5.3295
X4.0819Y-5.4295
X4.0819Y-5.5295
X4.0819Y-5.6295
X4.1819Y-4.4295
X4.1819Y-4.5295
X4.1819Y-4.6295
X4.1819Y-4.7295
X4.1819Y-4.8295
X4.1819Y-4.9295
X4.1819Y-5.0295
X4.1819Y-5.1295
X4.1819Y-5.2295
X4.1819Y-5.3295
X4.1819Y-5.4295
X4.1819Y-5.5295
X4.1819Y-5.6295
X5.876Y-5.6134
X5.876Y-5.7134
T4
X5.7992Y-4.3984
X5.7992Y-4.5984
X5.7992Y-4.7984
X5.7992Y-5.0382
X5.7992Y-5.2382
X5.7992Y-5.4382
T5
X4.1161Y-4.1161
X4.1161Y-5.8839
X5.8839Y-4.1161
X5.8839Y-5.8839
T0
M30
