G04 (created by PCBNEW (2013-may-18)-stable) date Tue 20 Oct 2015 09:02:20 PM EDT*
%MOIN*%
G04 Gerber Fmt 3.4, Leading zero omitted, Abs format*
%FSLAX34Y34*%
G01*
G70*
G90*
G04 APERTURE LIST*
%ADD10C,0.00590551*%
%ADD11R,0.036X0.036*%
%ADD12R,0.03X0.02*%
%ADD13R,0.02X0.03*%
%ADD14R,0.0236X0.0551*%
%ADD15R,0.11X0.19*%
%ADD16R,0.025X0.045*%
%ADD17R,0.045X0.025*%
%ADD18R,0.055X0.055*%
%ADD19C,0.055*%
%ADD20R,0.026X0.016*%
%ADD21R,0.06X0.06*%
%ADD22C,0.06*%
%ADD23R,0.0709X0.1378*%
%ADD24R,0.0354X0.0394*%
%ADD25R,0.0394X0.0354*%
%ADD26R,0.1X0.1*%
%ADD27C,0.1*%
%ADD28C,0.045*%
%ADD29R,0.106X0.063*%
%ADD30R,0.063X0.106*%
%ADD31C,0.16*%
%ADD32C,0.035*%
%ADD33C,0.006*%
%ADD34C,0.01*%
G04 APERTURE END LIST*
G54D10*
G54D11*
X55299Y-56981D03*
X55999Y-56981D03*
X55649Y-57781D03*
G54D12*
X53826Y-48268D03*
X53826Y-47518D03*
X52826Y-48268D03*
X53826Y-47893D03*
X52826Y-47518D03*
X53767Y-45237D03*
X53767Y-44487D03*
X52767Y-45237D03*
X53767Y-44862D03*
X52767Y-44487D03*
X53728Y-51556D03*
X53728Y-50806D03*
X52728Y-51556D03*
X53728Y-51181D03*
X52728Y-50806D03*
X53748Y-54725D03*
X53748Y-53975D03*
X52748Y-54725D03*
X53748Y-54350D03*
X52748Y-53975D03*
X47295Y-45904D03*
X47295Y-46654D03*
X48295Y-45904D03*
X47295Y-46279D03*
X48295Y-46654D03*
X45287Y-45924D03*
X45287Y-46674D03*
X46287Y-45924D03*
X45287Y-46299D03*
X46287Y-46674D03*
G54D13*
X51762Y-42118D03*
X52512Y-42118D03*
X51762Y-41118D03*
X52137Y-42118D03*
X52512Y-41118D03*
G54D14*
X47360Y-53320D03*
X47360Y-55420D03*
X47860Y-53320D03*
X48360Y-53320D03*
X48860Y-53320D03*
X47860Y-55420D03*
X48360Y-55420D03*
X48860Y-55420D03*
G54D15*
X46604Y-49232D03*
X44104Y-49232D03*
G54D16*
X51855Y-53976D03*
X51255Y-53976D03*
X53085Y-41614D03*
X53685Y-41614D03*
G54D17*
X51909Y-52711D03*
X51909Y-53311D03*
G54D16*
X54739Y-54015D03*
X55339Y-54015D03*
G54D17*
X53740Y-53370D03*
X53740Y-52770D03*
X53897Y-43764D03*
X53897Y-43164D03*
G54D16*
X51933Y-44448D03*
X51333Y-44448D03*
X54562Y-50787D03*
X55162Y-50787D03*
G54D17*
X52007Y-49542D03*
X52007Y-50142D03*
G54D16*
X51855Y-50787D03*
X51255Y-50787D03*
G54D17*
X53700Y-50181D03*
X53700Y-49581D03*
X51811Y-43223D03*
X51811Y-43823D03*
G54D16*
X54562Y-44429D03*
X55162Y-44429D03*
G54D17*
X53818Y-46874D03*
X53818Y-46274D03*
G54D16*
X54778Y-47480D03*
X55378Y-47480D03*
G54D17*
X51948Y-46255D03*
X51948Y-46855D03*
G54D16*
X51992Y-47480D03*
X51392Y-47480D03*
X55929Y-56181D03*
X55329Y-56181D03*
X49700Y-52106D03*
X50300Y-52106D03*
X50300Y-52755D03*
X49700Y-52755D03*
X49700Y-53759D03*
X50300Y-53759D03*
G54D17*
X48740Y-56117D03*
X48740Y-56717D03*
G54D16*
X57701Y-57125D03*
X57101Y-57125D03*
X53685Y-40944D03*
X53085Y-40944D03*
G54D18*
X43606Y-40877D03*
G54D19*
X44606Y-40877D03*
X45606Y-40877D03*
X46606Y-40877D03*
X47606Y-40877D03*
X48606Y-40877D03*
X49606Y-40877D03*
X50606Y-40877D03*
G54D18*
X43606Y-41877D03*
G54D19*
X44606Y-41877D03*
X45606Y-41877D03*
X46606Y-41877D03*
X47606Y-41877D03*
X48606Y-41877D03*
X49606Y-41877D03*
X50606Y-41877D03*
G54D18*
X43606Y-42877D03*
G54D19*
X44606Y-42877D03*
X45606Y-42877D03*
X46606Y-42877D03*
X47606Y-42877D03*
X48606Y-42877D03*
X49606Y-42877D03*
X50606Y-42877D03*
G54D18*
X43606Y-43877D03*
G54D19*
X44606Y-43877D03*
X45606Y-43877D03*
X46606Y-43877D03*
X47606Y-43877D03*
X48606Y-43877D03*
X49606Y-43877D03*
X50606Y-43877D03*
G54D18*
X54669Y-40826D03*
G54D19*
X55669Y-40826D03*
X56669Y-40826D03*
G54D20*
X49147Y-47594D03*
X49147Y-48114D03*
X49147Y-47854D03*
X49947Y-48114D03*
X49947Y-47594D03*
X49947Y-47854D03*
X49147Y-45940D03*
X49147Y-46460D03*
X49147Y-46200D03*
X49947Y-46460D03*
X49947Y-45940D03*
X49947Y-46200D03*
G54D21*
X58759Y-56133D03*
G54D22*
X58759Y-57133D03*
G54D21*
X41818Y-56295D03*
G54D22*
X40818Y-56295D03*
X41818Y-55295D03*
X40818Y-55295D03*
X41818Y-54295D03*
X40818Y-54295D03*
X41818Y-53295D03*
X40818Y-53295D03*
X41818Y-52295D03*
X40818Y-52295D03*
X41818Y-51295D03*
X40818Y-51295D03*
X41818Y-50295D03*
X40818Y-50295D03*
X41818Y-49295D03*
X40818Y-49295D03*
X41818Y-48295D03*
X40818Y-48295D03*
X41818Y-47295D03*
X40818Y-47295D03*
X41818Y-46295D03*
X40818Y-46295D03*
X41818Y-45295D03*
X40818Y-45295D03*
X41818Y-44295D03*
X40818Y-44295D03*
G54D23*
X46003Y-54507D03*
X46003Y-52539D03*
G54D24*
X54782Y-41771D03*
X55374Y-41771D03*
X47264Y-56023D03*
X46672Y-56023D03*
X50276Y-54370D03*
X49684Y-54370D03*
X56003Y-41771D03*
X56595Y-41771D03*
X50276Y-54940D03*
X49684Y-54940D03*
G54D25*
X44783Y-54016D03*
X44783Y-53424D03*
X52460Y-43227D03*
X52460Y-43819D03*
X54547Y-43207D03*
X54547Y-43799D03*
X54389Y-52774D03*
X54389Y-53366D03*
X52559Y-52715D03*
X52559Y-53307D03*
X54350Y-49566D03*
X54350Y-50158D03*
X52657Y-49546D03*
X52657Y-50138D03*
X52618Y-46259D03*
X52618Y-46851D03*
X54468Y-46259D03*
X54468Y-46851D03*
G54D26*
X57992Y-47984D03*
G54D27*
X57992Y-45984D03*
X57992Y-43984D03*
G54D26*
X57992Y-54381D03*
G54D27*
X57992Y-52381D03*
X57992Y-50381D03*
G54D28*
X52657Y-42637D03*
X51003Y-49881D03*
X51062Y-45846D03*
G54D24*
X53089Y-42244D03*
X53681Y-42244D03*
G54D29*
X47480Y-51339D03*
X47480Y-52439D03*
X48759Y-51339D03*
X48759Y-52439D03*
G54D30*
X47479Y-56889D03*
X46379Y-56889D03*
G54D28*
X53582Y-56811D03*
X50669Y-47047D03*
X49035Y-49822D03*
X52677Y-55728D03*
X54074Y-55413D03*
G54D31*
X41161Y-41161D03*
X58838Y-58838D03*
X58838Y-41161D03*
X41161Y-58838D03*
G54D32*
X45334Y-55767D03*
X48051Y-56515D03*
X52755Y-55059D03*
X52834Y-51850D03*
X52677Y-44940D03*
X52834Y-48622D03*
X54232Y-47972D03*
X54448Y-54429D03*
X54153Y-51141D03*
X54192Y-44862D03*
X44881Y-45078D03*
X48661Y-48110D03*
X48779Y-46653D03*
X45275Y-45413D03*
X47598Y-44744D03*
X42913Y-45787D03*
X51899Y-40679D03*
X46338Y-46279D03*
X42716Y-44232D03*
X54783Y-56377D03*
X49665Y-45551D03*
X49980Y-46830D03*
X49980Y-48464D03*
X48110Y-45531D03*
X45551Y-56535D03*
X50393Y-47874D03*
X50354Y-46220D03*
X45275Y-47047D03*
X49271Y-53031D03*
X50216Y-51614D03*
X54763Y-56988D03*
X54822Y-52795D03*
X53326Y-46555D03*
X54940Y-46259D03*
X54173Y-41653D03*
X52106Y-42578D03*
X54665Y-42283D03*
X55236Y-43326D03*
X55728Y-42834D03*
X54842Y-49566D03*
X47637Y-47007D03*
X53405Y-43208D03*
X54173Y-53996D03*
X53641Y-55078D03*
X52500Y-45787D03*
X52460Y-48956D03*
X44783Y-54389D03*
X46811Y-55413D03*
X55610Y-51929D03*
X55570Y-50669D03*
X55669Y-44409D03*
X55885Y-48661D03*
X55885Y-47913D03*
X55885Y-45511D03*
G54D33*
X47854Y-56043D02*
X47854Y-56318D01*
X47854Y-56318D02*
X48051Y-56515D01*
X47479Y-56889D02*
X47677Y-56889D01*
X47677Y-56889D02*
X48051Y-56515D01*
X47860Y-56043D02*
X47854Y-56043D01*
X47854Y-56043D02*
X47284Y-56043D01*
X47284Y-56043D02*
X47264Y-56023D01*
X54782Y-41771D02*
X54782Y-41416D01*
X54669Y-41303D02*
X54669Y-40826D01*
X54782Y-41416D02*
X54669Y-41303D01*
G54D34*
X52748Y-55051D02*
X52748Y-54725D01*
X52755Y-55059D02*
X52748Y-55051D01*
X52728Y-51744D02*
X52728Y-51556D01*
X52834Y-51850D02*
X52728Y-51744D01*
X47860Y-55420D02*
X47860Y-56043D01*
X52767Y-45237D02*
X52767Y-45031D01*
X52767Y-45031D02*
X52677Y-44940D01*
X52826Y-48268D02*
X52826Y-48614D01*
X52826Y-48614D02*
X52834Y-48622D01*
G54D33*
X53826Y-47893D02*
X54153Y-47893D01*
X54153Y-47893D02*
X54232Y-47972D01*
X56595Y-41771D02*
X56595Y-41318D01*
X56669Y-41244D02*
X56669Y-40826D01*
X56595Y-41318D02*
X56669Y-41244D01*
X54370Y-54350D02*
X53748Y-54350D01*
X54448Y-54429D02*
X54370Y-54350D01*
G54D34*
X54114Y-51181D02*
X53728Y-51181D01*
X54153Y-51141D02*
X54114Y-51181D01*
X54192Y-44862D02*
X53767Y-44862D01*
G54D33*
X47598Y-48405D02*
X46850Y-47657D01*
X41318Y-47795D02*
X40818Y-48295D01*
X42519Y-47795D02*
X41318Y-47795D01*
X42657Y-47657D02*
X42519Y-47795D01*
X46850Y-47657D02*
X42657Y-47657D01*
X55929Y-56181D02*
X55929Y-55831D01*
X49330Y-48405D02*
X47598Y-48405D01*
X50472Y-49547D02*
X49330Y-48405D01*
X50472Y-50078D02*
X50472Y-49547D01*
X50925Y-50531D02*
X50472Y-50078D01*
X50925Y-54488D02*
X50925Y-50531D01*
X52559Y-56122D02*
X50925Y-54488D01*
X54665Y-56122D02*
X52559Y-56122D01*
X55059Y-55728D02*
X54665Y-56122D01*
X55826Y-55728D02*
X55059Y-55728D01*
X55929Y-55831D02*
X55826Y-55728D01*
G54D34*
X55999Y-56981D02*
X55999Y-56688D01*
X55929Y-56618D02*
X55929Y-56181D01*
X55999Y-56688D02*
X55929Y-56618D01*
G54D33*
X45287Y-46299D02*
X42893Y-46299D01*
X41311Y-45787D02*
X40818Y-45295D01*
X42381Y-45787D02*
X41311Y-45787D01*
X42893Y-46299D02*
X42381Y-45787D01*
X45606Y-43877D02*
X45606Y-46185D01*
X45492Y-46299D02*
X45287Y-46299D01*
X45606Y-46185D02*
X45492Y-46299D01*
X47295Y-46279D02*
X46988Y-46279D01*
X46606Y-44303D02*
X46606Y-43877D01*
X46889Y-44586D02*
X46606Y-44303D01*
X46889Y-46181D02*
X46889Y-44586D01*
X46988Y-46279D02*
X46889Y-46181D01*
X41818Y-45295D02*
X42035Y-45078D01*
X42035Y-45078D02*
X44881Y-45078D01*
X50606Y-43877D02*
X50606Y-44059D01*
X49389Y-46161D02*
X49350Y-46200D01*
X49389Y-45275D02*
X49389Y-46161D01*
X50606Y-44059D02*
X49389Y-45275D01*
X49147Y-46200D02*
X49350Y-46200D01*
X49370Y-47854D02*
X49147Y-47854D01*
X49468Y-47755D02*
X49370Y-47854D01*
X49468Y-46318D02*
X49468Y-47755D01*
X49350Y-46200D02*
X49468Y-46318D01*
X47696Y-48114D02*
X47696Y-48110D01*
X43188Y-47381D02*
X43102Y-47295D01*
X46968Y-47381D02*
X43188Y-47381D01*
X47696Y-48110D02*
X46968Y-47381D01*
X48779Y-46653D02*
X48070Y-47362D01*
X48106Y-41377D02*
X48606Y-40877D01*
X46377Y-41377D02*
X48106Y-41377D01*
X46082Y-41673D02*
X46377Y-41377D01*
X46082Y-44192D02*
X46082Y-41673D01*
X46673Y-44783D02*
X46082Y-44192D01*
X46673Y-46496D02*
X46673Y-44783D01*
X47539Y-47362D02*
X46673Y-46496D01*
X48070Y-47362D02*
X47539Y-47362D01*
X49147Y-46460D02*
X48972Y-46460D01*
X48661Y-48110D02*
X48661Y-48114D01*
X48972Y-46460D02*
X48779Y-46653D01*
X49147Y-48114D02*
X48661Y-48114D01*
X48661Y-48114D02*
X47696Y-48114D01*
X43102Y-47295D02*
X41818Y-47295D01*
X45267Y-45421D02*
X45275Y-45413D01*
X47598Y-44744D02*
X47618Y-44744D01*
X47854Y-44980D02*
X47618Y-44744D01*
X45267Y-45421D02*
X45287Y-45924D01*
X42913Y-45787D02*
X43838Y-45787D01*
X43838Y-45787D02*
X43975Y-45924D01*
X43975Y-45924D02*
X45287Y-45924D01*
X49606Y-43877D02*
X49606Y-44527D01*
X49606Y-44527D02*
X49153Y-44980D01*
X49153Y-44980D02*
X47854Y-44980D01*
X47295Y-45539D02*
X47295Y-45904D01*
X47854Y-44980D02*
X47295Y-45539D01*
X46287Y-45924D02*
X46338Y-45975D01*
X46338Y-45975D02*
X46338Y-46279D01*
X43098Y-40877D02*
X43606Y-40877D01*
X42716Y-41259D02*
X43098Y-40877D01*
X42716Y-44232D02*
X42716Y-41259D01*
X50905Y-44232D02*
X50905Y-45157D01*
X50511Y-45551D02*
X49665Y-45551D01*
X50905Y-45157D02*
X50511Y-45551D01*
X54783Y-56377D02*
X52440Y-56377D01*
X51762Y-41118D02*
X51539Y-41118D01*
X51377Y-43759D02*
X50905Y-44232D01*
X51377Y-41279D02*
X51377Y-43759D01*
X51539Y-41118D02*
X51377Y-41279D01*
X49947Y-46460D02*
X49947Y-46797D01*
X49947Y-46797D02*
X49980Y-46830D01*
X49947Y-48431D02*
X49947Y-48114D01*
X49980Y-48464D02*
X49947Y-48431D01*
X50629Y-54566D02*
X50629Y-52696D01*
X52440Y-56377D02*
X50629Y-54566D01*
X50300Y-52755D02*
X50570Y-52755D01*
X50335Y-51339D02*
X48759Y-51339D01*
X50629Y-51633D02*
X50335Y-51339D01*
X50629Y-52696D02*
X50629Y-51633D01*
X50570Y-52755D02*
X50629Y-52696D01*
X49035Y-49822D02*
X47529Y-49822D01*
X47529Y-49822D02*
X47509Y-49842D01*
G54D34*
X51762Y-41118D02*
X51762Y-40815D01*
X53685Y-40595D02*
X53685Y-40944D01*
X53582Y-40492D02*
X53685Y-40595D01*
X52086Y-40492D02*
X53582Y-40492D01*
X51762Y-40815D02*
X51899Y-40679D01*
X51899Y-40679D02*
X52086Y-40492D01*
X47509Y-49842D02*
X47509Y-51310D01*
X47539Y-51339D02*
X48759Y-51339D01*
X47509Y-51310D02*
X47539Y-51339D01*
X48295Y-45716D02*
X48110Y-45531D01*
X48295Y-45904D02*
X48295Y-45716D01*
G54D33*
X51003Y-49881D02*
X51003Y-48031D01*
X50566Y-47594D02*
X49947Y-47594D01*
X51003Y-48031D02*
X50566Y-47594D01*
G54D34*
X51255Y-53976D02*
X51255Y-50787D01*
X51255Y-50787D02*
X51255Y-50133D01*
X51255Y-50133D02*
X51003Y-49881D01*
G54D33*
X51062Y-45846D02*
X51333Y-45575D01*
G54D34*
X51333Y-45575D02*
X51333Y-44448D01*
G54D33*
X51062Y-45846D02*
X50492Y-45846D01*
X50492Y-45846D02*
X50397Y-45940D01*
X50397Y-45940D02*
X49947Y-45940D01*
G54D34*
X51392Y-47480D02*
X51392Y-46176D01*
X51392Y-46176D02*
X51062Y-45846D01*
G54D33*
X46379Y-56889D02*
X46379Y-56101D01*
X46379Y-56101D02*
X46456Y-56023D01*
X46300Y-55867D02*
X46456Y-56023D01*
G54D34*
X46300Y-55867D02*
X46003Y-55570D01*
X46003Y-54507D02*
X46003Y-55570D01*
G54D33*
X46456Y-56023D02*
X46672Y-56023D01*
X45551Y-56515D02*
X45551Y-56535D01*
X45551Y-56535D02*
X45551Y-56653D01*
G54D34*
X44960Y-57106D02*
X45551Y-56515D01*
X40818Y-54295D02*
X41318Y-54795D01*
X41318Y-56909D02*
X41515Y-57106D01*
X41318Y-54795D02*
X41318Y-56909D01*
X41515Y-57106D02*
X44960Y-57106D01*
G54D33*
X45787Y-56889D02*
X46379Y-56889D01*
X45551Y-56653D02*
X45787Y-56889D01*
X46379Y-56889D02*
X46379Y-57461D01*
X46379Y-57461D02*
X46515Y-57598D01*
G54D34*
X48444Y-57598D02*
X48740Y-57303D01*
X46515Y-57598D02*
X48444Y-57598D01*
G54D33*
X56003Y-41771D02*
X55708Y-41771D01*
X55708Y-41771D02*
X55669Y-41811D01*
X55374Y-41771D02*
X55629Y-41771D01*
X55629Y-41771D02*
X55669Y-41811D01*
X57992Y-45984D02*
X58759Y-45984D01*
X58661Y-42834D02*
X55728Y-42834D01*
X59173Y-43346D02*
X58661Y-42834D01*
X59173Y-45570D02*
X59173Y-43346D01*
X58759Y-45984D02*
X59173Y-45570D01*
X50177Y-47874D02*
X50157Y-47854D01*
X50157Y-47854D02*
X49947Y-47854D01*
X50393Y-47874D02*
X50177Y-47874D01*
X53700Y-49581D02*
X53700Y-49311D01*
X50925Y-47303D02*
X50669Y-47047D01*
X50925Y-47696D02*
X50925Y-47303D01*
X51259Y-48031D02*
X50925Y-47696D01*
X51259Y-48287D02*
X51259Y-48031D01*
X52204Y-49232D02*
X51259Y-48287D01*
X53622Y-49232D02*
X52204Y-49232D01*
X53700Y-49311D02*
X53622Y-49232D01*
X40818Y-47295D02*
X40374Y-46850D01*
X41330Y-44783D02*
X41818Y-44295D01*
X40610Y-44783D02*
X41330Y-44783D01*
X40374Y-45019D02*
X40610Y-44783D01*
X40374Y-46850D02*
X40374Y-45019D01*
X40818Y-50295D02*
X40354Y-49830D01*
X40354Y-47759D02*
X40818Y-47295D01*
X40354Y-49830D02*
X40354Y-47759D01*
X49947Y-46200D02*
X50334Y-46200D01*
X50334Y-46200D02*
X50354Y-46220D01*
X45287Y-46674D02*
X45287Y-47035D01*
X45287Y-47035D02*
X45275Y-47047D01*
X50300Y-52106D02*
X50300Y-51658D01*
X48759Y-52519D02*
X48759Y-52439D01*
X49271Y-53031D02*
X48759Y-52519D01*
X50255Y-51614D02*
X50216Y-51614D01*
X50300Y-51658D02*
X50255Y-51614D01*
X49684Y-54940D02*
X49684Y-54370D01*
X49684Y-54370D02*
X47893Y-54370D01*
X47893Y-54370D02*
X47637Y-54114D01*
X53582Y-56811D02*
X54586Y-56811D01*
X54586Y-56811D02*
X54763Y-56988D01*
X53740Y-52770D02*
X54385Y-52770D01*
X54385Y-52770D02*
X54410Y-52795D01*
X54410Y-52795D02*
X54822Y-52795D01*
X53700Y-49581D02*
X54334Y-49581D01*
X54334Y-49581D02*
X54350Y-49566D01*
X53607Y-46274D02*
X53818Y-46274D01*
X53326Y-46555D02*
X53607Y-46274D01*
X53818Y-46274D02*
X54452Y-46274D01*
X54452Y-46274D02*
X54468Y-46259D01*
X54468Y-46259D02*
X54940Y-46259D01*
G54D34*
X52137Y-42118D02*
X52137Y-42547D01*
X54133Y-41614D02*
X53685Y-41614D01*
X54173Y-41653D02*
X54133Y-41614D01*
X52137Y-42547D02*
X52106Y-42578D01*
X53681Y-42244D02*
X53721Y-42283D01*
X53721Y-42283D02*
X54665Y-42283D01*
X54547Y-43207D02*
X55117Y-43207D01*
X55117Y-43207D02*
X55236Y-43326D01*
X55669Y-42775D02*
X55669Y-41811D01*
X55669Y-41811D02*
X55669Y-40826D01*
X55728Y-42834D02*
X55669Y-42775D01*
X53685Y-41614D02*
X53685Y-42240D01*
X53685Y-42240D02*
X53681Y-42244D01*
X40818Y-54295D02*
X41318Y-53795D01*
X41318Y-52795D02*
X41818Y-52295D01*
X41318Y-53795D02*
X41318Y-52795D01*
X40818Y-50295D02*
X41318Y-50795D01*
X41318Y-51795D02*
X41818Y-52295D01*
X41318Y-50795D02*
X41318Y-51795D01*
X54350Y-49566D02*
X54841Y-49566D01*
X54841Y-49566D02*
X54842Y-49566D01*
X54763Y-56988D02*
X54763Y-58228D01*
X48740Y-57342D02*
X48740Y-57303D01*
X49862Y-58464D02*
X48740Y-57342D01*
X54527Y-58464D02*
X49862Y-58464D01*
X54763Y-58228D02*
X54527Y-58464D01*
X48740Y-57303D02*
X48740Y-56717D01*
X46003Y-54507D02*
X47244Y-54507D01*
X47860Y-53891D02*
X47860Y-53320D01*
X47244Y-54507D02*
X47637Y-54114D01*
X47637Y-54114D02*
X47860Y-53891D01*
X47480Y-52439D02*
X48759Y-52439D01*
X47860Y-53320D02*
X47860Y-52819D01*
X47860Y-52819D02*
X47480Y-52439D01*
X47295Y-46862D02*
X47295Y-46654D01*
X47440Y-47007D02*
X47295Y-46862D01*
X47637Y-47007D02*
X47440Y-47007D01*
X55329Y-56181D02*
X55329Y-56638D01*
X55299Y-56668D02*
X55299Y-56981D01*
X55329Y-56638D02*
X55299Y-56668D01*
X55299Y-56981D02*
X54770Y-56981D01*
X54770Y-56981D02*
X54763Y-56988D01*
X53449Y-43164D02*
X53897Y-43164D01*
X53405Y-43208D02*
X53449Y-43164D01*
X54547Y-43207D02*
X53941Y-43207D01*
X53941Y-43207D02*
X53996Y-43152D01*
G54D33*
X49147Y-47594D02*
X47535Y-47594D01*
X46615Y-46674D02*
X46287Y-46674D01*
X47535Y-47594D02*
X46615Y-46674D01*
G54D34*
X57101Y-57125D02*
X56944Y-57125D01*
X55938Y-57781D02*
X56441Y-57278D01*
X56441Y-57278D02*
X56791Y-57278D01*
X55938Y-57781D02*
X55649Y-57781D01*
X56944Y-57125D02*
X56791Y-57278D01*
X58759Y-57133D02*
X57709Y-57133D01*
X57709Y-57133D02*
X57701Y-57125D01*
X48295Y-46654D02*
X48295Y-46389D01*
X48744Y-45940D02*
X49147Y-45940D01*
X48295Y-46389D02*
X48744Y-45940D01*
X52512Y-42118D02*
X52708Y-42118D01*
X52834Y-42244D02*
X53089Y-42244D01*
X52708Y-42118D02*
X52834Y-42244D01*
X53085Y-40944D02*
X53085Y-41614D01*
X53085Y-41614D02*
X53089Y-41618D01*
X53089Y-41618D02*
X53089Y-42244D01*
X52007Y-49542D02*
X52653Y-49542D01*
X52653Y-49542D02*
X52657Y-49546D01*
X52657Y-49546D02*
X52991Y-49546D01*
X53426Y-51556D02*
X53728Y-51556D01*
X53228Y-49783D02*
X52991Y-49546D01*
X53228Y-51358D02*
X53228Y-49783D01*
X53426Y-51556D02*
X53228Y-51358D01*
X52011Y-49546D02*
X52007Y-49542D01*
X53728Y-51556D02*
X55943Y-51556D01*
X57118Y-50381D02*
X57992Y-50381D01*
X55943Y-51556D02*
X57118Y-50381D01*
X54350Y-50158D02*
X54093Y-50158D01*
X54070Y-50181D02*
X53700Y-50181D01*
X54093Y-50158D02*
X54070Y-50181D01*
X54562Y-50787D02*
X54133Y-50787D01*
X54115Y-50806D02*
X53728Y-50806D01*
X54133Y-50787D02*
X54115Y-50806D01*
X53728Y-50806D02*
X53740Y-50794D01*
X53740Y-50794D02*
X53740Y-50492D01*
X53740Y-50492D02*
X53700Y-50452D01*
X53700Y-50452D02*
X53700Y-50181D01*
G54D33*
X51855Y-53976D02*
X52204Y-53976D01*
G54D34*
X54152Y-53975D02*
X53748Y-53975D01*
X54173Y-53996D02*
X54152Y-53975D01*
G54D33*
X53267Y-54704D02*
X53641Y-55078D01*
X53267Y-54507D02*
X53267Y-54704D01*
X53031Y-54271D02*
X53267Y-54507D01*
X52500Y-54271D02*
X53031Y-54271D01*
X52204Y-53976D02*
X52500Y-54271D01*
G54D34*
X54389Y-53366D02*
X53744Y-53366D01*
X53744Y-53366D02*
X53740Y-53370D01*
X53748Y-53975D02*
X53748Y-53378D01*
X53748Y-53378D02*
X53740Y-53370D01*
X52007Y-50142D02*
X52653Y-50142D01*
X52728Y-50602D02*
X52728Y-50806D01*
X52657Y-50531D02*
X52728Y-50602D01*
X52657Y-50146D02*
X52657Y-50531D01*
X52653Y-50142D02*
X52657Y-50146D01*
X52728Y-50806D02*
X51873Y-50806D01*
X51873Y-50806D02*
X51855Y-50787D01*
G54D33*
X54739Y-54015D02*
X54739Y-53272D01*
X51638Y-53311D02*
X51909Y-53311D01*
X51515Y-53188D02*
X51638Y-53311D01*
X51515Y-52480D02*
X51515Y-53188D01*
X51614Y-52381D02*
X51515Y-52480D01*
X54881Y-52381D02*
X51614Y-52381D01*
X55118Y-52618D02*
X54881Y-52381D01*
X55118Y-52893D02*
X55118Y-52618D01*
X54739Y-53272D02*
X55118Y-52893D01*
G54D34*
X52748Y-53975D02*
X52748Y-53811D01*
X52559Y-53622D02*
X52559Y-53307D01*
X52748Y-53811D02*
X52559Y-53622D01*
X51909Y-53311D02*
X52555Y-53311D01*
X52555Y-53311D02*
X52559Y-53307D01*
G54D33*
X52913Y-52716D02*
X52559Y-52716D01*
X52555Y-52711D02*
X51909Y-52711D01*
X52559Y-52716D02*
X52555Y-52711D01*
G54D34*
X53543Y-54725D02*
X53543Y-54724D01*
X53444Y-53681D02*
X53326Y-53562D01*
X53444Y-54625D02*
X53444Y-53681D01*
X53543Y-54724D02*
X53444Y-54625D01*
X53748Y-54725D02*
X53543Y-54725D01*
X51913Y-52715D02*
X51909Y-52711D01*
X53326Y-53129D02*
X52913Y-52716D01*
X53326Y-53562D02*
X53326Y-53129D01*
X53748Y-54725D02*
X56278Y-54725D01*
X56622Y-54381D02*
X57992Y-54381D01*
X56278Y-54725D02*
X56622Y-54381D01*
X53767Y-45237D02*
X55687Y-45237D01*
X56940Y-43984D02*
X57992Y-43984D01*
X55687Y-45237D02*
X56940Y-43984D01*
X51811Y-43223D02*
X52456Y-43223D01*
X52456Y-43223D02*
X52460Y-43227D01*
X53767Y-45237D02*
X53426Y-45237D01*
X52853Y-43227D02*
X52460Y-43227D01*
X53248Y-43622D02*
X52853Y-43227D01*
X53248Y-45059D02*
X53248Y-43622D01*
X53426Y-45237D02*
X53248Y-45059D01*
X54562Y-44429D02*
X54562Y-43814D01*
X54562Y-43814D02*
X54547Y-43799D01*
X53897Y-43764D02*
X54217Y-43764D01*
X54217Y-43764D02*
X54252Y-43799D01*
X54252Y-43799D02*
X54547Y-43799D01*
X54562Y-44429D02*
X54192Y-44429D01*
X54134Y-44487D02*
X53767Y-44487D01*
X54192Y-44429D02*
X54134Y-44487D01*
G54D33*
X54468Y-46851D02*
X53842Y-46851D01*
X53826Y-46866D02*
X53826Y-47518D01*
X53842Y-46851D02*
X53826Y-46866D01*
G54D34*
X51992Y-47480D02*
X52244Y-47480D01*
X53445Y-47518D02*
X53826Y-47518D01*
X53110Y-47854D02*
X53445Y-47518D01*
X52618Y-47854D02*
X53110Y-47854D01*
X52244Y-47480D02*
X52618Y-47854D01*
X52460Y-43819D02*
X51815Y-43819D01*
X51815Y-43819D02*
X51811Y-43823D01*
X51948Y-44173D02*
X51948Y-44433D01*
X51811Y-44035D02*
X51948Y-44173D01*
X51811Y-43823D02*
X51811Y-44035D01*
X51948Y-44433D02*
X51933Y-44448D01*
X52767Y-44487D02*
X51972Y-44487D01*
X51972Y-44487D02*
X51933Y-44448D01*
G54D33*
X54778Y-47480D02*
X54778Y-47071D01*
X52912Y-46851D02*
X52618Y-46851D01*
X52972Y-46791D02*
X52912Y-46851D01*
X52972Y-46318D02*
X52972Y-46791D01*
X53444Y-45846D02*
X52972Y-46318D01*
X55019Y-45846D02*
X53444Y-45846D01*
X55255Y-46082D02*
X55019Y-45846D01*
X55255Y-46594D02*
X55255Y-46082D01*
X54778Y-47071D02*
X55255Y-46594D01*
G54D34*
X52618Y-46851D02*
X52618Y-47066D01*
X52826Y-47275D02*
X52826Y-47518D01*
X52618Y-47066D02*
X52826Y-47275D01*
X52826Y-47518D02*
X52825Y-47519D01*
X51948Y-46855D02*
X52614Y-46855D01*
X52614Y-46855D02*
X52618Y-46851D01*
X53826Y-48268D02*
X53826Y-48515D01*
X52618Y-45905D02*
X52618Y-46259D01*
X52500Y-45787D02*
X52618Y-45905D01*
X53051Y-48956D02*
X52460Y-48956D01*
X53129Y-48877D02*
X53051Y-48956D01*
X53464Y-48877D02*
X53129Y-48877D01*
X53826Y-48515D02*
X53464Y-48877D01*
X51948Y-46255D02*
X52614Y-46255D01*
X52614Y-46255D02*
X52618Y-46259D01*
X53826Y-48268D02*
X56652Y-48268D01*
X56937Y-47984D02*
X57992Y-47984D01*
X56652Y-48268D02*
X56937Y-47984D01*
X46817Y-55420D02*
X46811Y-55413D01*
X47360Y-55420D02*
X46817Y-55420D01*
X44783Y-54389D02*
X44783Y-54016D01*
G54D33*
X44104Y-49232D02*
X44104Y-51309D01*
X44104Y-51309D02*
X45334Y-52539D01*
G54D34*
X44783Y-53424D02*
X44783Y-53090D01*
X45334Y-52539D02*
X45334Y-52539D01*
X45334Y-52539D02*
X46003Y-52539D01*
X44783Y-53090D02*
X45334Y-52539D01*
X47360Y-53320D02*
X46784Y-53320D01*
X46784Y-53320D02*
X46003Y-52539D01*
G54D33*
X49700Y-52106D02*
X49700Y-52755D01*
X49700Y-52755D02*
X49700Y-53095D01*
X49475Y-53320D02*
X48860Y-53320D01*
X49700Y-53095D02*
X49475Y-53320D01*
X49700Y-53759D02*
X48425Y-53759D01*
X48360Y-53694D02*
X48360Y-53320D01*
X48425Y-53759D02*
X48360Y-53694D01*
G54D34*
X48360Y-55420D02*
X48360Y-55737D01*
X48360Y-55737D02*
X48740Y-56117D01*
G54D33*
X50276Y-54940D02*
X50276Y-55196D01*
X50052Y-55420D02*
X48860Y-55420D01*
X50276Y-55196D02*
X50052Y-55420D01*
X50300Y-53759D02*
X50300Y-54346D01*
X50300Y-54346D02*
X50276Y-54370D01*
X52657Y-42637D02*
X52618Y-42637D01*
X51762Y-42648D02*
X51762Y-42118D01*
X52007Y-42893D02*
X51762Y-42648D01*
X52362Y-42893D02*
X52007Y-42893D01*
X52618Y-42637D02*
X52362Y-42893D01*
G54D34*
X51762Y-42118D02*
X51762Y-41780D01*
X51762Y-41780D02*
X51929Y-41614D01*
X51929Y-41614D02*
X52362Y-41614D01*
X52362Y-41614D02*
X52512Y-41463D01*
X52512Y-41463D02*
X52512Y-41118D01*
X55354Y-54015D02*
X55610Y-53759D01*
X55610Y-53759D02*
X55610Y-51929D01*
X55162Y-50787D02*
X55452Y-50787D01*
X55452Y-50787D02*
X55570Y-50669D01*
X55378Y-47480D02*
X55767Y-47480D01*
X55767Y-47480D02*
X55885Y-47362D01*
X55162Y-44429D02*
X55649Y-44429D01*
X55649Y-44429D02*
X55669Y-44409D01*
X55059Y-42637D02*
X55669Y-43248D01*
X55669Y-43248D02*
X55669Y-44409D01*
X52657Y-42637D02*
X55059Y-42637D01*
X55688Y-50551D02*
X55570Y-50669D01*
X55688Y-48858D02*
X55688Y-50551D01*
X55885Y-48661D02*
X55688Y-48858D01*
X55885Y-47362D02*
X55885Y-47913D01*
X55885Y-45511D02*
X55885Y-47362D01*
G54D10*
G36*
X46061Y-52589D02*
X46053Y-52589D01*
X46053Y-52597D01*
X45953Y-52597D01*
X45953Y-52589D01*
X45461Y-52589D01*
X45399Y-52652D01*
X45399Y-53145D01*
X45187Y-52986D01*
X45187Y-52617D01*
X45020Y-52450D01*
X44646Y-52450D01*
X44054Y-51857D01*
X44054Y-50369D01*
X44054Y-49282D01*
X43366Y-49282D01*
X43304Y-49344D01*
X43304Y-50132D01*
X43304Y-50232D01*
X43342Y-50324D01*
X43412Y-50394D01*
X43504Y-50432D01*
X43991Y-50432D01*
X44054Y-50369D01*
X44054Y-51857D01*
X43160Y-50963D01*
X43160Y-48485D01*
X43304Y-48341D01*
X43304Y-49119D01*
X43366Y-49182D01*
X44054Y-49182D01*
X44054Y-49174D01*
X44154Y-49174D01*
X44154Y-49182D01*
X44162Y-49182D01*
X44162Y-49282D01*
X44154Y-49282D01*
X44154Y-50369D01*
X44216Y-50432D01*
X44703Y-50432D01*
X44772Y-50403D01*
X44772Y-51044D01*
X45445Y-51700D01*
X45437Y-51709D01*
X45399Y-51801D01*
X45399Y-52427D01*
X45461Y-52489D01*
X45953Y-52489D01*
X45953Y-52481D01*
X46053Y-52481D01*
X46053Y-52489D01*
X46061Y-52489D01*
X46061Y-52589D01*
X46061Y-52589D01*
G37*
G54D34*
X46061Y-52589D02*
X46053Y-52589D01*
X46053Y-52597D01*
X45953Y-52597D01*
X45953Y-52589D01*
X45461Y-52589D01*
X45399Y-52652D01*
X45399Y-53145D01*
X45187Y-52986D01*
X45187Y-52617D01*
X45020Y-52450D01*
X44646Y-52450D01*
X44054Y-51857D01*
X44054Y-50369D01*
X44054Y-49282D01*
X43366Y-49282D01*
X43304Y-49344D01*
X43304Y-50132D01*
X43304Y-50232D01*
X43342Y-50324D01*
X43412Y-50394D01*
X43504Y-50432D01*
X43991Y-50432D01*
X44054Y-50369D01*
X44054Y-51857D01*
X43160Y-50963D01*
X43160Y-48485D01*
X43304Y-48341D01*
X43304Y-49119D01*
X43366Y-49182D01*
X44054Y-49182D01*
X44054Y-49174D01*
X44154Y-49174D01*
X44154Y-49182D01*
X44162Y-49182D01*
X44162Y-49282D01*
X44154Y-49282D01*
X44154Y-50369D01*
X44216Y-50432D01*
X44703Y-50432D01*
X44772Y-50403D01*
X44772Y-51044D01*
X45445Y-51700D01*
X45437Y-51709D01*
X45399Y-51801D01*
X45399Y-52427D01*
X45461Y-52489D01*
X45953Y-52489D01*
X45953Y-52481D01*
X46053Y-52481D01*
X46053Y-52489D01*
X46061Y-52489D01*
X46061Y-52589D01*
G54D10*
G36*
X48020Y-54411D02*
X47633Y-54890D01*
X46750Y-54890D01*
X46608Y-55033D01*
X46608Y-54620D01*
X46545Y-54557D01*
X46053Y-54557D01*
X46053Y-55384D01*
X46116Y-55446D01*
X46308Y-55446D01*
X46385Y-55446D01*
X46385Y-55497D01*
X46422Y-55586D01*
X46354Y-55614D01*
X46283Y-55684D01*
X46245Y-55776D01*
X46245Y-55876D01*
X46245Y-55911D01*
X46308Y-55973D01*
X46485Y-55973D01*
X46485Y-56073D01*
X46308Y-56073D01*
X46269Y-56112D01*
X46266Y-56109D01*
X46014Y-56109D01*
X45922Y-56147D01*
X45852Y-56217D01*
X45814Y-56309D01*
X45814Y-56409D01*
X45814Y-56777D01*
X45876Y-56839D01*
X46329Y-56839D01*
X46329Y-56831D01*
X46429Y-56831D01*
X46429Y-56839D01*
X46437Y-56839D01*
X46437Y-56939D01*
X46429Y-56939D01*
X46429Y-56947D01*
X46329Y-56947D01*
X46329Y-56939D01*
X45876Y-56939D01*
X45814Y-57002D01*
X45814Y-57370D01*
X45814Y-57469D01*
X45852Y-57561D01*
X45918Y-57627D01*
X45335Y-57627D01*
X45187Y-57479D01*
X45187Y-56166D01*
X45249Y-56192D01*
X45418Y-56192D01*
X45575Y-56128D01*
X45694Y-56008D01*
X45759Y-55852D01*
X45759Y-55683D01*
X45695Y-55527D01*
X45614Y-55446D01*
X45698Y-55446D01*
X45891Y-55446D01*
X45953Y-55384D01*
X45953Y-54557D01*
X45461Y-54557D01*
X45399Y-54620D01*
X45399Y-55246D01*
X45437Y-55338D01*
X45458Y-55358D01*
X45419Y-55342D01*
X45250Y-55342D01*
X45187Y-55368D01*
X45187Y-54822D01*
X45187Y-54524D01*
X45208Y-54474D01*
X45208Y-54310D01*
X45399Y-54120D01*
X45399Y-54395D01*
X45461Y-54457D01*
X45953Y-54457D01*
X45953Y-54449D01*
X46053Y-54449D01*
X46053Y-54457D01*
X46545Y-54457D01*
X46608Y-54395D01*
X46608Y-54105D01*
X47363Y-54105D01*
X47643Y-53825D01*
X47692Y-53845D01*
X47747Y-53845D01*
X47810Y-53783D01*
X47810Y-53370D01*
X47802Y-53370D01*
X47802Y-53270D01*
X47810Y-53270D01*
X47810Y-53262D01*
X47910Y-53262D01*
X47910Y-53270D01*
X47918Y-53270D01*
X47918Y-53370D01*
X47910Y-53370D01*
X47910Y-53783D01*
X47972Y-53845D01*
X48020Y-53845D01*
X48020Y-54411D01*
X48020Y-54411D01*
G37*
G54D34*
X48020Y-54411D02*
X47633Y-54890D01*
X46750Y-54890D01*
X46608Y-55033D01*
X46608Y-54620D01*
X46545Y-54557D01*
X46053Y-54557D01*
X46053Y-55384D01*
X46116Y-55446D01*
X46308Y-55446D01*
X46385Y-55446D01*
X46385Y-55497D01*
X46422Y-55586D01*
X46354Y-55614D01*
X46283Y-55684D01*
X46245Y-55776D01*
X46245Y-55876D01*
X46245Y-55911D01*
X46308Y-55973D01*
X46485Y-55973D01*
X46485Y-56073D01*
X46308Y-56073D01*
X46269Y-56112D01*
X46266Y-56109D01*
X46014Y-56109D01*
X45922Y-56147D01*
X45852Y-56217D01*
X45814Y-56309D01*
X45814Y-56409D01*
X45814Y-56777D01*
X45876Y-56839D01*
X46329Y-56839D01*
X46329Y-56831D01*
X46429Y-56831D01*
X46429Y-56839D01*
X46437Y-56839D01*
X46437Y-56939D01*
X46429Y-56939D01*
X46429Y-56947D01*
X46329Y-56947D01*
X46329Y-56939D01*
X45876Y-56939D01*
X45814Y-57002D01*
X45814Y-57370D01*
X45814Y-57469D01*
X45852Y-57561D01*
X45918Y-57627D01*
X45335Y-57627D01*
X45187Y-57479D01*
X45187Y-56166D01*
X45249Y-56192D01*
X45418Y-56192D01*
X45575Y-56128D01*
X45694Y-56008D01*
X45759Y-55852D01*
X45759Y-55683D01*
X45695Y-55527D01*
X45614Y-55446D01*
X45698Y-55446D01*
X45891Y-55446D01*
X45953Y-55384D01*
X45953Y-54557D01*
X45461Y-54557D01*
X45399Y-54620D01*
X45399Y-55246D01*
X45437Y-55338D01*
X45458Y-55358D01*
X45419Y-55342D01*
X45250Y-55342D01*
X45187Y-55368D01*
X45187Y-54822D01*
X45187Y-54524D01*
X45208Y-54474D01*
X45208Y-54310D01*
X45399Y-54120D01*
X45399Y-54395D01*
X45461Y-54457D01*
X45953Y-54457D01*
X45953Y-54449D01*
X46053Y-54449D01*
X46053Y-54457D01*
X46545Y-54457D01*
X46608Y-54395D01*
X46608Y-54105D01*
X47363Y-54105D01*
X47643Y-53825D01*
X47692Y-53845D01*
X47747Y-53845D01*
X47810Y-53783D01*
X47810Y-53370D01*
X47802Y-53370D01*
X47802Y-53270D01*
X47810Y-53270D01*
X47810Y-53262D01*
X47910Y-53262D01*
X47910Y-53270D01*
X47918Y-53270D01*
X47918Y-53370D01*
X47910Y-53370D01*
X47910Y-53783D01*
X47972Y-53845D01*
X48020Y-53845D01*
X48020Y-54411D01*
G54D10*
G36*
X48817Y-52489D02*
X48809Y-52489D01*
X48809Y-52497D01*
X48709Y-52497D01*
X48709Y-52489D01*
X48197Y-52489D01*
X48042Y-52489D01*
X47530Y-52489D01*
X47530Y-52497D01*
X47510Y-52497D01*
X47510Y-52381D01*
X47530Y-52381D01*
X47530Y-52389D01*
X48042Y-52389D01*
X48197Y-52389D01*
X48709Y-52389D01*
X48709Y-52381D01*
X48809Y-52381D01*
X48809Y-52389D01*
X48817Y-52389D01*
X48817Y-52489D01*
X48817Y-52489D01*
G37*
G54D34*
X48817Y-52489D02*
X48809Y-52489D01*
X48809Y-52497D01*
X48709Y-52497D01*
X48709Y-52489D01*
X48197Y-52489D01*
X48042Y-52489D01*
X47530Y-52489D01*
X47530Y-52497D01*
X47510Y-52497D01*
X47510Y-52381D01*
X47530Y-52381D01*
X47530Y-52389D01*
X48042Y-52389D01*
X48197Y-52389D01*
X48709Y-52389D01*
X48709Y-52381D01*
X48809Y-52381D01*
X48809Y-52389D01*
X48817Y-52389D01*
X48817Y-52489D01*
G54D10*
G36*
X49457Y-50839D02*
X49431Y-50812D01*
X49339Y-50774D01*
X49296Y-50774D01*
X49296Y-50154D01*
X49035Y-49893D01*
X48964Y-49964D01*
X48964Y-49822D01*
X48703Y-49562D01*
X48616Y-49580D01*
X48555Y-49758D01*
X48567Y-49947D01*
X48616Y-50065D01*
X48703Y-50083D01*
X48964Y-49822D01*
X48964Y-49964D01*
X48774Y-50154D01*
X48792Y-50241D01*
X48971Y-50302D01*
X49160Y-50290D01*
X49278Y-50241D01*
X49296Y-50154D01*
X49296Y-50774D01*
X49240Y-50774D01*
X48872Y-50774D01*
X48809Y-50837D01*
X48809Y-51289D01*
X48817Y-51289D01*
X48817Y-51389D01*
X48809Y-51389D01*
X48809Y-51397D01*
X48709Y-51397D01*
X48709Y-51389D01*
X48709Y-51289D01*
X48709Y-50837D01*
X48647Y-50774D01*
X48279Y-50774D01*
X48179Y-50774D01*
X48120Y-50799D01*
X48060Y-50774D01*
X47960Y-50774D01*
X47592Y-50774D01*
X47530Y-50837D01*
X47530Y-51289D01*
X48042Y-51289D01*
X48197Y-51289D01*
X48709Y-51289D01*
X48709Y-51389D01*
X48197Y-51389D01*
X48042Y-51389D01*
X47530Y-51389D01*
X47530Y-51397D01*
X47430Y-51397D01*
X47430Y-51389D01*
X47430Y-51289D01*
X47430Y-50837D01*
X47404Y-50811D01*
X47404Y-50132D01*
X47404Y-49344D01*
X47341Y-49282D01*
X46654Y-49282D01*
X46654Y-50369D01*
X46716Y-50432D01*
X47203Y-50432D01*
X47295Y-50394D01*
X47366Y-50324D01*
X47404Y-50232D01*
X47404Y-50132D01*
X47404Y-50811D01*
X47367Y-50774D01*
X46999Y-50774D01*
X46900Y-50774D01*
X46808Y-50812D01*
X46738Y-50883D01*
X46700Y-50975D01*
X46700Y-51227D01*
X46762Y-51289D01*
X47430Y-51289D01*
X47430Y-51389D01*
X46762Y-51389D01*
X46700Y-51452D01*
X46700Y-51550D01*
X46112Y-50963D01*
X46112Y-50432D01*
X46491Y-50432D01*
X46554Y-50369D01*
X46554Y-49282D01*
X46546Y-49282D01*
X46546Y-49182D01*
X46554Y-49182D01*
X46554Y-49174D01*
X46654Y-49174D01*
X46654Y-49182D01*
X47341Y-49182D01*
X47404Y-49119D01*
X47404Y-48616D01*
X47991Y-49203D01*
X49073Y-49203D01*
X49271Y-49401D01*
X49099Y-49342D01*
X48910Y-49354D01*
X48792Y-49403D01*
X48774Y-49491D01*
X49035Y-49752D01*
X49041Y-49746D01*
X49111Y-49817D01*
X49106Y-49822D01*
X49366Y-50083D01*
X49454Y-50065D01*
X49457Y-50055D01*
X49457Y-50839D01*
X49457Y-50839D01*
G37*
G54D34*
X49457Y-50839D02*
X49431Y-50812D01*
X49339Y-50774D01*
X49296Y-50774D01*
X49296Y-50154D01*
X49035Y-49893D01*
X48964Y-49964D01*
X48964Y-49822D01*
X48703Y-49562D01*
X48616Y-49580D01*
X48555Y-49758D01*
X48567Y-49947D01*
X48616Y-50065D01*
X48703Y-50083D01*
X48964Y-49822D01*
X48964Y-49964D01*
X48774Y-50154D01*
X48792Y-50241D01*
X48971Y-50302D01*
X49160Y-50290D01*
X49278Y-50241D01*
X49296Y-50154D01*
X49296Y-50774D01*
X49240Y-50774D01*
X48872Y-50774D01*
X48809Y-50837D01*
X48809Y-51289D01*
X48817Y-51289D01*
X48817Y-51389D01*
X48809Y-51389D01*
X48809Y-51397D01*
X48709Y-51397D01*
X48709Y-51389D01*
X48709Y-51289D01*
X48709Y-50837D01*
X48647Y-50774D01*
X48279Y-50774D01*
X48179Y-50774D01*
X48120Y-50799D01*
X48060Y-50774D01*
X47960Y-50774D01*
X47592Y-50774D01*
X47530Y-50837D01*
X47530Y-51289D01*
X48042Y-51289D01*
X48197Y-51289D01*
X48709Y-51289D01*
X48709Y-51389D01*
X48197Y-51389D01*
X48042Y-51389D01*
X47530Y-51389D01*
X47530Y-51397D01*
X47430Y-51397D01*
X47430Y-51389D01*
X47430Y-51289D01*
X47430Y-50837D01*
X47404Y-50811D01*
X47404Y-50132D01*
X47404Y-49344D01*
X47341Y-49282D01*
X46654Y-49282D01*
X46654Y-50369D01*
X46716Y-50432D01*
X47203Y-50432D01*
X47295Y-50394D01*
X47366Y-50324D01*
X47404Y-50232D01*
X47404Y-50132D01*
X47404Y-50811D01*
X47367Y-50774D01*
X46999Y-50774D01*
X46900Y-50774D01*
X46808Y-50812D01*
X46738Y-50883D01*
X46700Y-50975D01*
X46700Y-51227D01*
X46762Y-51289D01*
X47430Y-51289D01*
X47430Y-51389D01*
X46762Y-51389D01*
X46700Y-51452D01*
X46700Y-51550D01*
X46112Y-50963D01*
X46112Y-50432D01*
X46491Y-50432D01*
X46554Y-50369D01*
X46554Y-49282D01*
X46546Y-49282D01*
X46546Y-49182D01*
X46554Y-49182D01*
X46554Y-49174D01*
X46654Y-49174D01*
X46654Y-49182D01*
X47341Y-49182D01*
X47404Y-49119D01*
X47404Y-48616D01*
X47991Y-49203D01*
X49073Y-49203D01*
X49271Y-49401D01*
X49099Y-49342D01*
X48910Y-49354D01*
X48792Y-49403D01*
X48774Y-49491D01*
X49035Y-49752D01*
X49041Y-49746D01*
X49111Y-49817D01*
X49106Y-49822D01*
X49366Y-50083D01*
X49454Y-50065D01*
X49457Y-50055D01*
X49457Y-50839D01*
M02*
