G04 (created by PCBNEW (2013-may-18)-stable) date Wed 21 Oct 2015 08:45:46 PM EDT*
%MOIN*%
G04 Gerber Fmt 3.4, Leading zero omitted, Abs format*
%FSLAX34Y34*%
G01*
G70*
G90*
G04 APERTURE LIST*
%ADD10C,0.00590551*%
%ADD11R,0.055X0.055*%
%ADD12C,0.055*%
%ADD13R,0.06X0.06*%
%ADD14C,0.06*%
%ADD15R,0.0394X0.0354*%
%ADD16R,0.0354X0.0394*%
%ADD17R,0.1X0.1*%
%ADD18C,0.1*%
%ADD19C,0.045*%
%ADD20C,0.16*%
%ADD21C,0.035*%
%ADD22C,0.006*%
%ADD23C,0.01*%
G04 APERTURE END LIST*
G54D10*
G54D11*
X43606Y-40877D03*
G54D12*
X44606Y-40877D03*
X45606Y-40877D03*
X46606Y-40877D03*
X47606Y-40877D03*
X48606Y-40877D03*
X49606Y-40877D03*
X50606Y-40877D03*
G54D11*
X43606Y-41877D03*
G54D12*
X44606Y-41877D03*
X45606Y-41877D03*
X46606Y-41877D03*
X47606Y-41877D03*
X48606Y-41877D03*
X49606Y-41877D03*
X50606Y-41877D03*
G54D11*
X43606Y-42877D03*
G54D12*
X44606Y-42877D03*
X45606Y-42877D03*
X46606Y-42877D03*
X47606Y-42877D03*
X48606Y-42877D03*
X49606Y-42877D03*
X50606Y-42877D03*
G54D11*
X43606Y-43877D03*
G54D12*
X44606Y-43877D03*
X45606Y-43877D03*
X46606Y-43877D03*
X47606Y-43877D03*
X48606Y-43877D03*
X49606Y-43877D03*
X50606Y-43877D03*
G54D11*
X54669Y-40826D03*
G54D12*
X55669Y-40826D03*
X56669Y-40826D03*
G54D13*
X58759Y-56133D03*
G54D14*
X58759Y-57133D03*
G54D13*
X41818Y-56295D03*
G54D14*
X40818Y-56295D03*
X41818Y-55295D03*
X40818Y-55295D03*
X41818Y-54295D03*
X40818Y-54295D03*
X41818Y-53295D03*
X40818Y-53295D03*
X41818Y-52295D03*
X40818Y-52295D03*
X41818Y-51295D03*
X40818Y-51295D03*
X41818Y-50295D03*
X40818Y-50295D03*
X41818Y-49295D03*
X40818Y-49295D03*
X41818Y-48295D03*
X40818Y-48295D03*
X41818Y-47295D03*
X40818Y-47295D03*
X41818Y-46295D03*
X40818Y-46295D03*
X41818Y-45295D03*
X40818Y-45295D03*
X41818Y-44295D03*
X40818Y-44295D03*
G54D15*
X53208Y-45589D03*
X53208Y-46181D03*
X52165Y-41337D03*
X52165Y-41929D03*
G54D16*
X49369Y-45964D03*
X49961Y-45964D03*
G54D15*
X50452Y-48858D03*
X50452Y-48266D03*
X45807Y-46259D03*
X45807Y-46851D03*
X47795Y-45963D03*
X47795Y-46555D03*
X53661Y-43759D03*
X53661Y-44351D03*
X54625Y-49134D03*
X54625Y-48542D03*
X53366Y-48366D03*
X53366Y-47774D03*
G54D16*
X53089Y-45000D03*
X53681Y-45000D03*
X53188Y-51476D03*
X53780Y-51476D03*
X53188Y-53562D03*
X53780Y-53562D03*
X52402Y-51850D03*
X51810Y-51850D03*
G54D17*
X57992Y-47984D03*
G54D18*
X57992Y-45984D03*
X57992Y-43984D03*
G54D17*
X57992Y-54381D03*
G54D18*
X57992Y-52381D03*
X57992Y-50381D03*
G54D19*
X52657Y-42637D03*
X51003Y-49881D03*
X51062Y-45846D03*
X53582Y-56811D03*
X50669Y-47047D03*
X49035Y-49822D03*
X52677Y-55728D03*
X54074Y-55413D03*
G54D20*
X41161Y-41161D03*
X58838Y-58838D03*
X58838Y-41161D03*
X41161Y-58838D03*
G54D21*
X45334Y-55767D03*
X48051Y-56515D03*
X52755Y-55059D03*
X52834Y-51850D03*
X52677Y-44940D03*
X52834Y-48622D03*
X54232Y-47972D03*
X54448Y-54429D03*
X54153Y-51141D03*
X54192Y-44862D03*
X44881Y-45078D03*
X48661Y-48110D03*
X48779Y-46653D03*
X45275Y-45413D03*
X47598Y-44744D03*
X42913Y-45787D03*
X51899Y-40679D03*
X46338Y-46279D03*
X42716Y-44232D03*
X54783Y-56377D03*
X49665Y-45551D03*
X49980Y-46830D03*
X49980Y-48464D03*
X48110Y-45531D03*
X45551Y-56535D03*
X50393Y-47874D03*
X50354Y-46220D03*
X45275Y-47047D03*
X49271Y-53031D03*
X50216Y-51614D03*
X54763Y-56988D03*
X54822Y-52795D03*
X53326Y-46555D03*
X54940Y-46259D03*
X54173Y-41653D03*
X52106Y-42578D03*
X54665Y-42283D03*
X55236Y-43326D03*
X55728Y-42834D03*
X54842Y-49566D03*
X47637Y-47007D03*
X53405Y-43208D03*
X54173Y-53996D03*
X53641Y-55078D03*
X52500Y-45787D03*
X52460Y-48956D03*
X44783Y-54389D03*
X46811Y-55413D03*
X55610Y-51929D03*
X55570Y-50669D03*
X55669Y-44409D03*
X55885Y-48661D03*
X55885Y-47913D03*
X55885Y-45511D03*
G54D22*
X53188Y-51476D02*
X53188Y-51772D01*
X53110Y-51850D02*
X52834Y-51850D01*
X53188Y-51772D02*
X53110Y-51850D01*
X52402Y-51850D02*
X52834Y-51850D01*
X52677Y-55728D02*
X52677Y-55137D01*
X52677Y-55137D02*
X52755Y-55059D01*
X53188Y-53562D02*
X52814Y-53562D01*
X52814Y-53562D02*
X52814Y-53543D01*
G54D23*
X51299Y-56515D02*
X52755Y-55059D01*
X48051Y-56515D02*
X51299Y-56515D01*
G54D22*
X53208Y-45589D02*
X53208Y-45413D01*
X53089Y-45294D02*
X53089Y-45000D01*
X53208Y-45413D02*
X53089Y-45294D01*
G54D23*
X52834Y-53523D02*
X52814Y-53543D01*
X52814Y-53543D02*
X52755Y-53602D01*
X52755Y-53602D02*
X52755Y-55059D01*
X52834Y-51850D02*
X52834Y-53523D01*
X52834Y-48622D02*
X52834Y-51850D01*
X53631Y-42726D02*
X53297Y-42726D01*
X52677Y-43346D02*
X52677Y-44940D01*
X53297Y-42726D02*
X52677Y-43346D01*
X52677Y-44940D02*
X52834Y-45098D01*
X52834Y-45098D02*
X52834Y-48622D01*
X54669Y-40826D02*
X54669Y-41688D01*
X54669Y-41688D02*
X53631Y-42726D01*
X52736Y-45000D02*
X53089Y-45000D01*
X52677Y-44940D02*
X52736Y-45000D01*
X53089Y-48366D02*
X53366Y-48366D01*
X52834Y-48622D02*
X53089Y-48366D01*
G54D22*
X53780Y-51476D02*
X53780Y-51259D01*
X53897Y-51141D02*
X54153Y-51141D01*
X53780Y-51259D02*
X53897Y-51141D01*
X53366Y-47774D02*
X53662Y-47774D01*
X53956Y-47480D02*
X54232Y-47480D01*
X53662Y-47774D02*
X53956Y-47480D01*
X54625Y-48542D02*
X54428Y-48542D01*
X54428Y-48542D02*
X54232Y-48346D01*
X53780Y-53562D02*
X54133Y-53562D01*
X54133Y-53562D02*
X54153Y-53543D01*
X53681Y-45000D02*
X53681Y-44371D01*
X53681Y-44371D02*
X53661Y-44351D01*
G54D23*
X53681Y-45000D02*
X54055Y-45000D01*
G54D22*
X54074Y-55413D02*
X54074Y-54803D01*
X54074Y-54803D02*
X54448Y-54429D01*
X54153Y-51141D02*
X54153Y-53543D01*
X54448Y-53838D02*
X54448Y-54429D01*
X54153Y-53543D02*
X54448Y-53838D01*
G54D23*
X54232Y-51062D02*
X54153Y-51141D01*
X54192Y-44862D02*
X54192Y-47125D01*
X54192Y-47125D02*
X54232Y-47165D01*
X54232Y-47165D02*
X54232Y-47480D01*
X54232Y-47480D02*
X54232Y-47972D01*
X54232Y-47972D02*
X54232Y-48346D01*
X54232Y-48346D02*
X54232Y-51062D01*
X56669Y-40826D02*
X56669Y-42385D01*
X56669Y-42385D02*
X54192Y-44862D01*
X53661Y-44351D02*
X54016Y-44351D01*
X54016Y-44351D02*
X54192Y-44527D01*
X54192Y-44527D02*
X54192Y-44862D01*
X54055Y-45000D02*
X54192Y-44862D01*
G54D22*
X44606Y-40877D02*
X44102Y-40374D01*
X44102Y-40374D02*
X42933Y-40374D01*
X42933Y-40374D02*
X42322Y-40984D01*
X42322Y-40984D02*
X42322Y-41751D01*
X42322Y-41751D02*
X40334Y-43740D01*
X40334Y-43740D02*
X40334Y-47811D01*
X40334Y-47811D02*
X40818Y-48295D01*
X46606Y-43877D02*
X46114Y-43385D01*
X41728Y-43385D02*
X40818Y-44295D01*
X46114Y-43385D02*
X41728Y-43385D01*
X46594Y-45078D02*
X44881Y-45078D01*
X50133Y-43405D02*
X50606Y-43877D01*
X47283Y-43405D02*
X50133Y-43405D01*
X47086Y-43602D02*
X47283Y-43405D01*
X47086Y-44586D02*
X47086Y-43602D01*
X47086Y-44586D02*
X46594Y-45078D01*
X48661Y-46771D02*
X48661Y-48110D01*
X48779Y-46653D02*
X48661Y-46771D01*
X45275Y-45413D02*
X46929Y-45413D01*
X46929Y-45413D02*
X47598Y-44744D01*
X40818Y-46295D02*
X41326Y-45787D01*
X41326Y-45787D02*
X42913Y-45787D01*
X52165Y-41337D02*
X52165Y-40944D01*
X52165Y-40944D02*
X51899Y-40679D01*
X49980Y-46830D02*
X49803Y-46830D01*
X49369Y-46396D02*
X49369Y-45964D01*
X49803Y-46830D02*
X49369Y-46396D01*
X49369Y-45964D02*
X49369Y-45707D01*
X49369Y-45707D02*
X49192Y-45531D01*
X50452Y-48858D02*
X50059Y-48858D01*
X50059Y-48858D02*
X49980Y-48779D01*
X44862Y-46279D02*
X45786Y-46279D01*
X44576Y-46564D02*
X44862Y-46279D01*
X45786Y-46279D02*
X45807Y-46259D01*
X46338Y-46279D02*
X45827Y-46279D01*
X45827Y-46279D02*
X45807Y-46259D01*
X44576Y-46564D02*
X42716Y-44704D01*
X42716Y-44704D02*
X42716Y-44232D01*
X44576Y-46564D02*
X42588Y-48553D01*
X42598Y-51496D02*
X47362Y-51496D01*
X47362Y-51496D02*
X49035Y-49822D01*
X49035Y-49822D02*
X49566Y-49822D01*
X49566Y-49822D02*
X49980Y-49409D01*
X49980Y-49409D02*
X49980Y-48779D01*
X49980Y-48779D02*
X49980Y-48464D01*
X41818Y-56295D02*
X42385Y-56295D01*
X42330Y-48295D02*
X41818Y-48295D01*
X42598Y-48562D02*
X42588Y-48553D01*
X42588Y-48553D02*
X42330Y-48295D01*
X42598Y-56082D02*
X42598Y-51496D01*
X42598Y-51496D02*
X42598Y-48562D01*
X42385Y-56295D02*
X42598Y-56082D01*
X54960Y-56141D02*
X54783Y-56318D01*
X58759Y-56133D02*
X54960Y-56141D01*
X54783Y-56318D02*
X54783Y-56377D01*
X49724Y-45629D02*
X49724Y-45610D01*
X49665Y-45551D02*
X49734Y-45620D01*
X49734Y-45620D02*
X49724Y-45629D01*
X48110Y-45531D02*
X49192Y-45531D01*
X49192Y-45531D02*
X49645Y-45531D01*
X49645Y-45531D02*
X49724Y-45610D01*
X49980Y-46830D02*
X49980Y-48464D01*
G54D23*
X47795Y-45610D02*
X47795Y-45963D01*
X47874Y-45531D02*
X47795Y-45610D01*
X48110Y-45531D02*
X47874Y-45531D01*
G54D22*
X54625Y-49134D02*
X54625Y-49350D01*
X54625Y-49350D02*
X54842Y-49566D01*
X51810Y-51850D02*
X50452Y-51850D01*
X50452Y-51850D02*
X50216Y-51614D01*
X52165Y-41929D02*
X52165Y-42047D01*
X52165Y-42047D02*
X52401Y-42283D01*
X49961Y-45964D02*
X50098Y-45964D01*
X50098Y-45964D02*
X50354Y-46220D01*
X50452Y-48266D02*
X50452Y-47933D01*
X50452Y-47933D02*
X50393Y-47874D01*
X45807Y-46851D02*
X45471Y-46851D01*
X45471Y-46851D02*
X45275Y-47047D01*
X50669Y-47047D02*
X50669Y-46535D01*
X50669Y-46535D02*
X50354Y-46220D01*
X50669Y-47047D02*
X50669Y-47598D01*
X50669Y-47598D02*
X50393Y-47874D01*
X53582Y-56811D02*
X53582Y-56220D01*
X54822Y-55511D02*
X54822Y-52795D01*
X54429Y-55905D02*
X54822Y-55511D01*
X53897Y-55905D02*
X54429Y-55905D01*
X53582Y-56220D02*
X53897Y-55905D01*
X49606Y-40877D02*
X50606Y-40877D01*
X50606Y-40877D02*
X52106Y-42377D01*
X52106Y-42377D02*
X52106Y-42578D01*
X47637Y-47007D02*
X47460Y-47007D01*
X47460Y-47007D02*
X47145Y-46692D01*
X47145Y-46692D02*
X47145Y-45531D01*
X47145Y-45531D02*
X47519Y-45157D01*
X47519Y-45157D02*
X49921Y-45157D01*
X49921Y-45157D02*
X50354Y-45590D01*
X50354Y-45590D02*
X50354Y-46220D01*
X47283Y-47362D02*
X47637Y-47007D01*
X45590Y-47362D02*
X47283Y-47362D01*
X45275Y-47047D02*
X45590Y-47362D01*
X49271Y-52559D02*
X49271Y-53031D01*
X50216Y-51614D02*
X49271Y-52559D01*
X55452Y-52362D02*
X55511Y-52303D01*
G54D23*
X57913Y-52303D02*
X57992Y-52381D01*
X55511Y-52303D02*
X57913Y-52303D01*
G54D22*
X54822Y-52795D02*
X55255Y-52362D01*
X55255Y-52362D02*
X55452Y-52362D01*
X53208Y-46437D02*
X53326Y-46555D01*
X53208Y-46181D02*
X53208Y-46437D01*
G54D23*
X57992Y-45984D02*
X55649Y-45984D01*
G54D22*
X55215Y-45984D02*
X55649Y-45984D01*
X55215Y-45984D02*
X54940Y-46259D01*
G54D23*
X53031Y-41653D02*
X54173Y-41653D01*
X52106Y-42578D02*
X52401Y-42283D01*
X52401Y-42283D02*
X53031Y-41653D01*
X54665Y-42755D02*
X55236Y-43326D01*
X54665Y-42283D02*
X54665Y-42755D01*
X55236Y-43326D02*
X55728Y-42834D01*
X55039Y-49370D02*
X58976Y-49370D01*
X54842Y-49566D02*
X55039Y-49370D01*
X57992Y-52381D02*
X58208Y-52381D01*
X58976Y-46968D02*
X57992Y-45984D01*
X58976Y-51614D02*
X58976Y-49370D01*
X58976Y-49370D02*
X58976Y-46968D01*
X58208Y-52381D02*
X58976Y-51614D01*
X47795Y-46850D02*
X47637Y-47007D01*
X47795Y-46555D02*
X47795Y-46850D01*
X53661Y-43759D02*
X53661Y-43464D01*
X53661Y-43464D02*
X53405Y-43208D01*
G54D22*
X53641Y-54527D02*
X53641Y-55078D01*
X54173Y-53996D02*
X53641Y-54527D01*
G54D23*
X52500Y-46555D02*
X52500Y-45787D01*
X52460Y-46594D02*
X52500Y-46555D01*
X52460Y-48956D02*
X52460Y-46594D01*
X46811Y-55413D02*
X45807Y-55413D01*
X45807Y-55413D02*
X44783Y-54389D01*
X55570Y-51889D02*
X55570Y-50669D01*
X55610Y-51929D02*
X55570Y-51889D01*
X55885Y-47913D02*
X55885Y-48661D01*
X55885Y-44625D02*
X55885Y-45511D01*
X55669Y-44409D02*
X55885Y-44625D01*
G54D10*
G36*
X41588Y-47795D02*
X41507Y-47828D01*
X41352Y-47983D01*
X41318Y-48065D01*
X41285Y-47984D01*
X41130Y-47829D01*
X41055Y-47797D01*
X41106Y-47776D01*
X41134Y-47681D01*
X40818Y-47365D01*
X40813Y-47371D01*
X40742Y-47300D01*
X40748Y-47295D01*
X40742Y-47289D01*
X40813Y-47218D01*
X40818Y-47224D01*
X41134Y-46909D01*
X41106Y-46814D01*
X41051Y-46794D01*
X41130Y-46761D01*
X41284Y-46607D01*
X41318Y-46525D01*
X41352Y-46606D01*
X41506Y-46761D01*
X41588Y-46795D01*
X41507Y-46828D01*
X41352Y-46983D01*
X41321Y-47058D01*
X41300Y-47007D01*
X41204Y-46980D01*
X40889Y-47295D01*
X41204Y-47610D01*
X41300Y-47583D01*
X41319Y-47527D01*
X41352Y-47606D01*
X41506Y-47761D01*
X41588Y-47795D01*
X41588Y-47795D01*
G37*
G54D23*
X41588Y-47795D02*
X41507Y-47828D01*
X41352Y-47983D01*
X41318Y-48065D01*
X41285Y-47984D01*
X41130Y-47829D01*
X41055Y-47797D01*
X41106Y-47776D01*
X41134Y-47681D01*
X40818Y-47365D01*
X40813Y-47371D01*
X40742Y-47300D01*
X40748Y-47295D01*
X40742Y-47289D01*
X40813Y-47218D01*
X40818Y-47224D01*
X41134Y-46909D01*
X41106Y-46814D01*
X41051Y-46794D01*
X41130Y-46761D01*
X41284Y-46607D01*
X41318Y-46525D01*
X41352Y-46606D01*
X41506Y-46761D01*
X41588Y-46795D01*
X41507Y-46828D01*
X41352Y-46983D01*
X41321Y-47058D01*
X41300Y-47007D01*
X41204Y-46980D01*
X40889Y-47295D01*
X41204Y-47610D01*
X41300Y-47583D01*
X41319Y-47527D01*
X41352Y-47606D01*
X41506Y-47761D01*
X41588Y-47795D01*
G54D10*
G36*
X41588Y-50795D02*
X41507Y-50828D01*
X41352Y-50983D01*
X41318Y-51065D01*
X41285Y-50984D01*
X41130Y-50829D01*
X41055Y-50797D01*
X41106Y-50776D01*
X41134Y-50681D01*
X40818Y-50365D01*
X40813Y-50371D01*
X40742Y-50300D01*
X40748Y-50295D01*
X40742Y-50289D01*
X40813Y-50218D01*
X40818Y-50224D01*
X41134Y-49909D01*
X41106Y-49814D01*
X41051Y-49794D01*
X41130Y-49761D01*
X41284Y-49607D01*
X41318Y-49525D01*
X41352Y-49606D01*
X41506Y-49761D01*
X41588Y-49795D01*
X41507Y-49828D01*
X41352Y-49983D01*
X41321Y-50058D01*
X41300Y-50007D01*
X41204Y-49980D01*
X40889Y-50295D01*
X41204Y-50610D01*
X41300Y-50583D01*
X41319Y-50527D01*
X41352Y-50606D01*
X41506Y-50761D01*
X41588Y-50795D01*
X41588Y-50795D01*
G37*
G54D23*
X41588Y-50795D02*
X41507Y-50828D01*
X41352Y-50983D01*
X41318Y-51065D01*
X41285Y-50984D01*
X41130Y-50829D01*
X41055Y-50797D01*
X41106Y-50776D01*
X41134Y-50681D01*
X40818Y-50365D01*
X40813Y-50371D01*
X40742Y-50300D01*
X40748Y-50295D01*
X40742Y-50289D01*
X40813Y-50218D01*
X40818Y-50224D01*
X41134Y-49909D01*
X41106Y-49814D01*
X41051Y-49794D01*
X41130Y-49761D01*
X41284Y-49607D01*
X41318Y-49525D01*
X41352Y-49606D01*
X41506Y-49761D01*
X41588Y-49795D01*
X41507Y-49828D01*
X41352Y-49983D01*
X41321Y-50058D01*
X41300Y-50007D01*
X41204Y-49980D01*
X40889Y-50295D01*
X41204Y-50610D01*
X41300Y-50583D01*
X41319Y-50527D01*
X41352Y-50606D01*
X41506Y-50761D01*
X41588Y-50795D01*
G54D10*
G36*
X41588Y-54795D02*
X41507Y-54828D01*
X41352Y-54983D01*
X41318Y-55065D01*
X41285Y-54984D01*
X41130Y-54829D01*
X41055Y-54797D01*
X41106Y-54776D01*
X41134Y-54681D01*
X40818Y-54365D01*
X40813Y-54371D01*
X40742Y-54300D01*
X40748Y-54295D01*
X40742Y-54289D01*
X40813Y-54218D01*
X40818Y-54224D01*
X41134Y-53909D01*
X41106Y-53814D01*
X41051Y-53794D01*
X41130Y-53761D01*
X41284Y-53607D01*
X41318Y-53525D01*
X41352Y-53606D01*
X41506Y-53761D01*
X41588Y-53795D01*
X41507Y-53828D01*
X41352Y-53983D01*
X41321Y-54058D01*
X41300Y-54007D01*
X41204Y-53980D01*
X40889Y-54295D01*
X41204Y-54610D01*
X41300Y-54583D01*
X41319Y-54527D01*
X41352Y-54606D01*
X41506Y-54761D01*
X41588Y-54795D01*
X41588Y-54795D01*
G37*
G54D23*
X41588Y-54795D02*
X41507Y-54828D01*
X41352Y-54983D01*
X41318Y-55065D01*
X41285Y-54984D01*
X41130Y-54829D01*
X41055Y-54797D01*
X41106Y-54776D01*
X41134Y-54681D01*
X40818Y-54365D01*
X40813Y-54371D01*
X40742Y-54300D01*
X40748Y-54295D01*
X40742Y-54289D01*
X40813Y-54218D01*
X40818Y-54224D01*
X41134Y-53909D01*
X41106Y-53814D01*
X41051Y-53794D01*
X41130Y-53761D01*
X41284Y-53607D01*
X41318Y-53525D01*
X41352Y-53606D01*
X41506Y-53761D01*
X41588Y-53795D01*
X41507Y-53828D01*
X41352Y-53983D01*
X41321Y-54058D01*
X41300Y-54007D01*
X41204Y-53980D01*
X40889Y-54295D01*
X41204Y-54610D01*
X41300Y-54583D01*
X41319Y-54527D01*
X41352Y-54606D01*
X41506Y-54761D01*
X41588Y-54795D01*
G54D10*
G36*
X42318Y-53063D02*
X42285Y-52984D01*
X42130Y-52829D01*
X42055Y-52797D01*
X42106Y-52776D01*
X42134Y-52681D01*
X41818Y-52365D01*
X41503Y-52681D01*
X41531Y-52776D01*
X41586Y-52796D01*
X41507Y-52828D01*
X41352Y-52983D01*
X41318Y-53065D01*
X41285Y-52984D01*
X41130Y-52829D01*
X41049Y-52795D01*
X41130Y-52761D01*
X41284Y-52607D01*
X41316Y-52531D01*
X41337Y-52583D01*
X41432Y-52610D01*
X41748Y-52295D01*
X41432Y-51980D01*
X41337Y-52007D01*
X41317Y-52062D01*
X41285Y-51984D01*
X41130Y-51829D01*
X41049Y-51795D01*
X41130Y-51761D01*
X41284Y-51607D01*
X41318Y-51525D01*
X41352Y-51606D01*
X41506Y-51761D01*
X41582Y-51792D01*
X41531Y-51814D01*
X41503Y-51909D01*
X41818Y-52224D01*
X42134Y-51909D01*
X42106Y-51814D01*
X42051Y-51794D01*
X42130Y-51761D01*
X42284Y-51607D01*
X42318Y-51526D01*
X42318Y-52051D01*
X42300Y-52007D01*
X42204Y-51980D01*
X41889Y-52295D01*
X42204Y-52610D01*
X42300Y-52583D01*
X42318Y-52531D01*
X42318Y-53063D01*
X42318Y-53063D01*
G37*
G54D23*
X42318Y-53063D02*
X42285Y-52984D01*
X42130Y-52829D01*
X42055Y-52797D01*
X42106Y-52776D01*
X42134Y-52681D01*
X41818Y-52365D01*
X41503Y-52681D01*
X41531Y-52776D01*
X41586Y-52796D01*
X41507Y-52828D01*
X41352Y-52983D01*
X41318Y-53065D01*
X41285Y-52984D01*
X41130Y-52829D01*
X41049Y-52795D01*
X41130Y-52761D01*
X41284Y-52607D01*
X41316Y-52531D01*
X41337Y-52583D01*
X41432Y-52610D01*
X41748Y-52295D01*
X41432Y-51980D01*
X41337Y-52007D01*
X41317Y-52062D01*
X41285Y-51984D01*
X41130Y-51829D01*
X41049Y-51795D01*
X41130Y-51761D01*
X41284Y-51607D01*
X41318Y-51525D01*
X41352Y-51606D01*
X41506Y-51761D01*
X41582Y-51792D01*
X41531Y-51814D01*
X41503Y-51909D01*
X41818Y-52224D01*
X42134Y-51909D01*
X42106Y-51814D01*
X42051Y-51794D01*
X42130Y-51761D01*
X42284Y-51607D01*
X42318Y-51526D01*
X42318Y-52051D01*
X42300Y-52007D01*
X42204Y-51980D01*
X41889Y-52295D01*
X42204Y-52610D01*
X42300Y-52583D01*
X42318Y-52531D01*
X42318Y-53063D01*
G54D10*
G36*
X43081Y-44002D02*
X43077Y-43991D01*
X42957Y-43872D01*
X42801Y-43807D01*
X42632Y-43807D01*
X42476Y-43871D01*
X42356Y-43991D01*
X42324Y-44067D01*
X42300Y-44007D01*
X42204Y-43980D01*
X41889Y-44295D01*
X42204Y-44610D01*
X42300Y-44583D01*
X42347Y-44451D01*
X42356Y-44472D01*
X42436Y-44553D01*
X42436Y-44704D01*
X42457Y-44811D01*
X42518Y-44902D01*
X42978Y-45362D01*
X42829Y-45362D01*
X42672Y-45426D01*
X42592Y-45507D01*
X42326Y-45507D01*
X42368Y-45405D01*
X42368Y-45186D01*
X42285Y-44984D01*
X42130Y-44829D01*
X42055Y-44797D01*
X42106Y-44776D01*
X42134Y-44681D01*
X41818Y-44365D01*
X41503Y-44681D01*
X41531Y-44776D01*
X41586Y-44796D01*
X41507Y-44828D01*
X41352Y-44983D01*
X41318Y-45065D01*
X41285Y-44984D01*
X41130Y-44829D01*
X41049Y-44795D01*
X41130Y-44761D01*
X41284Y-44607D01*
X41316Y-44531D01*
X41337Y-44583D01*
X41432Y-44610D01*
X41748Y-44295D01*
X41742Y-44289D01*
X41813Y-44218D01*
X41818Y-44224D01*
X42134Y-43909D01*
X42106Y-43814D01*
X41900Y-43740D01*
X41762Y-43747D01*
X41844Y-43665D01*
X43081Y-43665D01*
X43081Y-44002D01*
X43081Y-44002D01*
G37*
G54D23*
X43081Y-44002D02*
X43077Y-43991D01*
X42957Y-43872D01*
X42801Y-43807D01*
X42632Y-43807D01*
X42476Y-43871D01*
X42356Y-43991D01*
X42324Y-44067D01*
X42300Y-44007D01*
X42204Y-43980D01*
X41889Y-44295D01*
X42204Y-44610D01*
X42300Y-44583D01*
X42347Y-44451D01*
X42356Y-44472D01*
X42436Y-44553D01*
X42436Y-44704D01*
X42457Y-44811D01*
X42518Y-44902D01*
X42978Y-45362D01*
X42829Y-45362D01*
X42672Y-45426D01*
X42592Y-45507D01*
X42326Y-45507D01*
X42368Y-45405D01*
X42368Y-45186D01*
X42285Y-44984D01*
X42130Y-44829D01*
X42055Y-44797D01*
X42106Y-44776D01*
X42134Y-44681D01*
X41818Y-44365D01*
X41503Y-44681D01*
X41531Y-44776D01*
X41586Y-44796D01*
X41507Y-44828D01*
X41352Y-44983D01*
X41318Y-45065D01*
X41285Y-44984D01*
X41130Y-44829D01*
X41049Y-44795D01*
X41130Y-44761D01*
X41284Y-44607D01*
X41316Y-44531D01*
X41337Y-44583D01*
X41432Y-44610D01*
X41748Y-44295D01*
X41742Y-44289D01*
X41813Y-44218D01*
X41818Y-44224D01*
X42134Y-43909D01*
X42106Y-43814D01*
X41900Y-43740D01*
X41762Y-43747D01*
X41844Y-43665D01*
X43081Y-43665D01*
X43081Y-44002D01*
G54D10*
G36*
X53909Y-47209D02*
X53849Y-47221D01*
X53758Y-47282D01*
X53669Y-47371D01*
X53655Y-47365D01*
X53655Y-46408D01*
X53655Y-46294D01*
X53593Y-46231D01*
X53258Y-46231D01*
X53258Y-46546D01*
X53321Y-46608D01*
X53356Y-46608D01*
X53455Y-46608D01*
X53547Y-46570D01*
X53617Y-46500D01*
X53655Y-46408D01*
X53655Y-47365D01*
X53613Y-47347D01*
X53513Y-47347D01*
X53134Y-47347D01*
X53134Y-46570D01*
X53158Y-46546D01*
X53158Y-46231D01*
X53150Y-46231D01*
X53150Y-46131D01*
X53158Y-46131D01*
X53158Y-46123D01*
X53258Y-46123D01*
X53258Y-46131D01*
X53593Y-46131D01*
X53655Y-46069D01*
X53655Y-45955D01*
X53626Y-45885D01*
X53655Y-45816D01*
X53655Y-45717D01*
X53655Y-45447D01*
X53892Y-45447D01*
X53892Y-47125D01*
X53909Y-47209D01*
X53909Y-47209D01*
G37*
G54D23*
X53909Y-47209D02*
X53849Y-47221D01*
X53758Y-47282D01*
X53669Y-47371D01*
X53655Y-47365D01*
X53655Y-46408D01*
X53655Y-46294D01*
X53593Y-46231D01*
X53258Y-46231D01*
X53258Y-46546D01*
X53321Y-46608D01*
X53356Y-46608D01*
X53455Y-46608D01*
X53547Y-46570D01*
X53617Y-46500D01*
X53655Y-46408D01*
X53655Y-47365D01*
X53613Y-47347D01*
X53513Y-47347D01*
X53134Y-47347D01*
X53134Y-46570D01*
X53158Y-46546D01*
X53158Y-46231D01*
X53150Y-46231D01*
X53150Y-46131D01*
X53158Y-46131D01*
X53158Y-46123D01*
X53258Y-46123D01*
X53258Y-46131D01*
X53593Y-46131D01*
X53655Y-46069D01*
X53655Y-45955D01*
X53626Y-45885D01*
X53655Y-45816D01*
X53655Y-45717D01*
X53655Y-45447D01*
X53892Y-45447D01*
X53892Y-47125D01*
X53909Y-47209D01*
G54D10*
G36*
X56369Y-42261D02*
X55966Y-42664D01*
X55966Y-41194D01*
X55669Y-40897D01*
X55372Y-41194D01*
X55396Y-41287D01*
X55593Y-41356D01*
X55802Y-41345D01*
X55942Y-41287D01*
X55966Y-41194D01*
X55966Y-42664D01*
X54360Y-44270D01*
X54228Y-44138D01*
X54131Y-44073D01*
X54083Y-44064D01*
X54079Y-44055D01*
X54108Y-43985D01*
X54108Y-43532D01*
X54070Y-43440D01*
X54000Y-43370D01*
X53908Y-43332D01*
X53808Y-43332D01*
X53773Y-43332D01*
X53711Y-43394D01*
X53711Y-43709D01*
X54045Y-43709D01*
X54108Y-43646D01*
X54108Y-43532D01*
X54108Y-43985D01*
X54108Y-43871D01*
X54045Y-43809D01*
X53711Y-43809D01*
X53711Y-43816D01*
X53611Y-43816D01*
X53611Y-43809D01*
X53611Y-43709D01*
X53611Y-43394D01*
X53548Y-43332D01*
X53513Y-43332D01*
X53414Y-43332D01*
X53322Y-43370D01*
X53252Y-43440D01*
X53214Y-43532D01*
X53214Y-43646D01*
X53276Y-43709D01*
X53611Y-43709D01*
X53611Y-43809D01*
X53276Y-43809D01*
X53214Y-43871D01*
X53214Y-43985D01*
X53243Y-44055D01*
X53214Y-44124D01*
X53214Y-44223D01*
X53214Y-44552D01*
X52977Y-44552D01*
X52977Y-43470D01*
X53421Y-43026D01*
X53631Y-43026D01*
X53631Y-43026D01*
X53746Y-43003D01*
X53746Y-43003D01*
X53844Y-42938D01*
X54881Y-41901D01*
X54881Y-41901D01*
X54946Y-41803D01*
X54969Y-41688D01*
X54969Y-41688D01*
X54969Y-41351D01*
X54993Y-41351D01*
X55085Y-41313D01*
X55156Y-41243D01*
X55194Y-41151D01*
X55194Y-41064D01*
X55208Y-41099D01*
X55301Y-41123D01*
X55598Y-40826D01*
X55301Y-40529D01*
X55208Y-40553D01*
X55194Y-40594D01*
X55194Y-40502D01*
X55163Y-40427D01*
X55380Y-40427D01*
X55372Y-40458D01*
X55669Y-40756D01*
X55966Y-40458D01*
X55958Y-40427D01*
X56326Y-40427D01*
X56224Y-40528D01*
X56171Y-40655D01*
X56129Y-40553D01*
X56037Y-40529D01*
X55740Y-40826D01*
X56037Y-41123D01*
X56129Y-41099D01*
X56168Y-40989D01*
X56223Y-41123D01*
X56369Y-41269D01*
X56369Y-42261D01*
X56369Y-42261D01*
G37*
G54D23*
X56369Y-42261D02*
X55966Y-42664D01*
X55966Y-41194D01*
X55669Y-40897D01*
X55372Y-41194D01*
X55396Y-41287D01*
X55593Y-41356D01*
X55802Y-41345D01*
X55942Y-41287D01*
X55966Y-41194D01*
X55966Y-42664D01*
X54360Y-44270D01*
X54228Y-44138D01*
X54131Y-44073D01*
X54083Y-44064D01*
X54079Y-44055D01*
X54108Y-43985D01*
X54108Y-43532D01*
X54070Y-43440D01*
X54000Y-43370D01*
X53908Y-43332D01*
X53808Y-43332D01*
X53773Y-43332D01*
X53711Y-43394D01*
X53711Y-43709D01*
X54045Y-43709D01*
X54108Y-43646D01*
X54108Y-43532D01*
X54108Y-43985D01*
X54108Y-43871D01*
X54045Y-43809D01*
X53711Y-43809D01*
X53711Y-43816D01*
X53611Y-43816D01*
X53611Y-43809D01*
X53611Y-43709D01*
X53611Y-43394D01*
X53548Y-43332D01*
X53513Y-43332D01*
X53414Y-43332D01*
X53322Y-43370D01*
X53252Y-43440D01*
X53214Y-43532D01*
X53214Y-43646D01*
X53276Y-43709D01*
X53611Y-43709D01*
X53611Y-43809D01*
X53276Y-43809D01*
X53214Y-43871D01*
X53214Y-43985D01*
X53243Y-44055D01*
X53214Y-44124D01*
X53214Y-44223D01*
X53214Y-44552D01*
X52977Y-44552D01*
X52977Y-43470D01*
X53421Y-43026D01*
X53631Y-43026D01*
X53631Y-43026D01*
X53746Y-43003D01*
X53746Y-43003D01*
X53844Y-42938D01*
X54881Y-41901D01*
X54881Y-41901D01*
X54946Y-41803D01*
X54969Y-41688D01*
X54969Y-41688D01*
X54969Y-41351D01*
X54993Y-41351D01*
X55085Y-41313D01*
X55156Y-41243D01*
X55194Y-41151D01*
X55194Y-41064D01*
X55208Y-41099D01*
X55301Y-41123D01*
X55598Y-40826D01*
X55301Y-40529D01*
X55208Y-40553D01*
X55194Y-40594D01*
X55194Y-40502D01*
X55163Y-40427D01*
X55380Y-40427D01*
X55372Y-40458D01*
X55669Y-40756D01*
X55966Y-40458D01*
X55958Y-40427D01*
X56326Y-40427D01*
X56224Y-40528D01*
X56171Y-40655D01*
X56129Y-40553D01*
X56037Y-40529D01*
X55740Y-40826D01*
X56037Y-41123D01*
X56129Y-41099D01*
X56168Y-40989D01*
X56223Y-41123D01*
X56369Y-41269D01*
X56369Y-42261D01*
G54D10*
G36*
X59572Y-58087D02*
X59434Y-57948D01*
X59309Y-57897D01*
X59309Y-57024D01*
X59226Y-56822D01*
X59087Y-56683D01*
X59109Y-56683D01*
X59201Y-56645D01*
X59271Y-56575D01*
X59309Y-56483D01*
X59309Y-56384D01*
X59309Y-55784D01*
X59271Y-55692D01*
X59201Y-55622D01*
X59109Y-55583D01*
X59010Y-55583D01*
X58745Y-55583D01*
X58745Y-52511D01*
X58745Y-46113D01*
X58742Y-45979D01*
X58742Y-43835D01*
X58628Y-43559D01*
X58417Y-43348D01*
X58141Y-43234D01*
X57843Y-43234D01*
X57567Y-43348D01*
X57356Y-43558D01*
X57242Y-43834D01*
X57241Y-44132D01*
X57355Y-44408D01*
X57566Y-44619D01*
X57842Y-44734D01*
X58140Y-44734D01*
X58416Y-44620D01*
X58627Y-44409D01*
X58741Y-44134D01*
X58742Y-43835D01*
X58742Y-45979D01*
X58737Y-45815D01*
X58638Y-45576D01*
X58522Y-45524D01*
X58452Y-45595D01*
X58452Y-45453D01*
X58400Y-45337D01*
X58121Y-45230D01*
X57823Y-45238D01*
X57584Y-45337D01*
X57532Y-45453D01*
X57992Y-45913D01*
X58452Y-45453D01*
X58452Y-45595D01*
X58062Y-45984D01*
X58522Y-46444D01*
X58638Y-46392D01*
X58745Y-46113D01*
X58745Y-52511D01*
X58742Y-52377D01*
X58742Y-50233D01*
X58742Y-50233D01*
X58742Y-48434D01*
X58742Y-47434D01*
X58704Y-47342D01*
X58633Y-47272D01*
X58542Y-47234D01*
X58452Y-47234D01*
X58452Y-46514D01*
X57992Y-46054D01*
X57921Y-46125D01*
X57921Y-45984D01*
X57461Y-45524D01*
X57345Y-45576D01*
X57238Y-45854D01*
X57246Y-46153D01*
X57345Y-46392D01*
X57461Y-46444D01*
X57921Y-45984D01*
X57921Y-46125D01*
X57532Y-46514D01*
X57584Y-46630D01*
X57862Y-46737D01*
X58160Y-46730D01*
X58400Y-46630D01*
X58452Y-46514D01*
X58452Y-47234D01*
X58442Y-47234D01*
X57442Y-47234D01*
X57350Y-47272D01*
X57280Y-47342D01*
X57242Y-47434D01*
X57242Y-47533D01*
X57242Y-48533D01*
X57280Y-48625D01*
X57350Y-48696D01*
X57442Y-48734D01*
X57541Y-48734D01*
X58541Y-48734D01*
X58633Y-48696D01*
X58703Y-48626D01*
X58742Y-48534D01*
X58742Y-48434D01*
X58742Y-50233D01*
X58628Y-49957D01*
X58417Y-49746D01*
X58141Y-49632D01*
X57843Y-49631D01*
X57567Y-49745D01*
X57356Y-49956D01*
X57242Y-50232D01*
X57241Y-50530D01*
X57355Y-50806D01*
X57566Y-51017D01*
X57842Y-51131D01*
X58140Y-51132D01*
X58416Y-51018D01*
X58627Y-50807D01*
X58741Y-50531D01*
X58742Y-50233D01*
X58742Y-52377D01*
X58737Y-52213D01*
X58638Y-51973D01*
X58522Y-51921D01*
X58452Y-51992D01*
X58452Y-51851D01*
X58400Y-51735D01*
X58121Y-51628D01*
X57823Y-51636D01*
X57584Y-51735D01*
X57532Y-51851D01*
X57992Y-52311D01*
X58452Y-51851D01*
X58452Y-51992D01*
X58062Y-52381D01*
X58522Y-52841D01*
X58638Y-52789D01*
X58745Y-52511D01*
X58745Y-55583D01*
X58742Y-55583D01*
X58742Y-54832D01*
X58742Y-53832D01*
X58704Y-53740D01*
X58633Y-53670D01*
X58542Y-53631D01*
X58452Y-53631D01*
X58452Y-52912D01*
X57992Y-52452D01*
X57921Y-52523D01*
X57921Y-52381D01*
X57461Y-51921D01*
X57345Y-51973D01*
X57238Y-52252D01*
X57246Y-52550D01*
X57345Y-52789D01*
X57461Y-52841D01*
X57921Y-52381D01*
X57921Y-52523D01*
X57532Y-52912D01*
X57584Y-53028D01*
X57862Y-53135D01*
X58160Y-53127D01*
X58400Y-53028D01*
X58452Y-52912D01*
X58452Y-53631D01*
X58442Y-53631D01*
X57442Y-53631D01*
X57350Y-53669D01*
X57280Y-53740D01*
X57242Y-53831D01*
X57242Y-53931D01*
X57242Y-54931D01*
X57280Y-55023D01*
X57350Y-55093D01*
X57442Y-55131D01*
X57541Y-55131D01*
X58541Y-55131D01*
X58633Y-55093D01*
X58703Y-55023D01*
X58742Y-54931D01*
X58742Y-54832D01*
X58742Y-55583D01*
X58410Y-55583D01*
X58318Y-55621D01*
X58248Y-55692D01*
X58209Y-55783D01*
X58209Y-55856D01*
X56310Y-55859D01*
X56310Y-48577D01*
X56246Y-48420D01*
X56185Y-48360D01*
X56185Y-48214D01*
X56245Y-48154D01*
X56310Y-47998D01*
X56310Y-47829D01*
X56246Y-47672D01*
X56126Y-47553D01*
X55970Y-47488D01*
X55801Y-47488D01*
X55645Y-47552D01*
X55525Y-47672D01*
X55460Y-47828D01*
X55460Y-47997D01*
X55525Y-48153D01*
X55585Y-48214D01*
X55585Y-48360D01*
X55525Y-48420D01*
X55460Y-48576D01*
X55460Y-48745D01*
X55525Y-48901D01*
X55644Y-49021D01*
X55800Y-49086D01*
X55969Y-49086D01*
X56126Y-49021D01*
X56245Y-48902D01*
X56310Y-48746D01*
X56310Y-48577D01*
X56310Y-55859D01*
X56035Y-55859D01*
X56035Y-51844D01*
X55970Y-51688D01*
X55870Y-51588D01*
X55870Y-50970D01*
X55930Y-50910D01*
X55995Y-50754D01*
X55995Y-50585D01*
X55931Y-50428D01*
X55811Y-50309D01*
X55655Y-50244D01*
X55486Y-50244D01*
X55330Y-50308D01*
X55210Y-50428D01*
X55145Y-50584D01*
X55145Y-50753D01*
X55210Y-50909D01*
X55270Y-50970D01*
X55270Y-51667D01*
X55250Y-51688D01*
X55185Y-51844D01*
X55185Y-52013D01*
X55249Y-52169D01*
X55369Y-52289D01*
X55525Y-52354D01*
X55694Y-52354D01*
X55850Y-52289D01*
X55970Y-52170D01*
X56035Y-52014D01*
X56035Y-51844D01*
X56035Y-55859D01*
X55073Y-55861D01*
X55073Y-49361D01*
X55072Y-49247D01*
X55010Y-49184D01*
X54675Y-49184D01*
X54675Y-49499D01*
X54738Y-49561D01*
X54773Y-49561D01*
X54872Y-49561D01*
X54964Y-49523D01*
X55035Y-49453D01*
X55073Y-49361D01*
X55073Y-55861D01*
X54960Y-55861D01*
X54906Y-55872D01*
X54853Y-55883D01*
X54853Y-55883D01*
X54853Y-55883D01*
X54807Y-55913D01*
X54762Y-55943D01*
X54753Y-55952D01*
X54699Y-55952D01*
X54543Y-56017D01*
X54423Y-56136D01*
X54358Y-56293D01*
X54358Y-56462D01*
X54422Y-56618D01*
X54542Y-56738D01*
X54698Y-56802D01*
X54867Y-56803D01*
X55023Y-56738D01*
X55143Y-56619D01*
X55208Y-56462D01*
X55208Y-56421D01*
X58209Y-56416D01*
X58209Y-56483D01*
X58247Y-56575D01*
X58318Y-56645D01*
X58409Y-56683D01*
X58432Y-56683D01*
X58293Y-56821D01*
X58209Y-57023D01*
X58209Y-57242D01*
X58293Y-57445D01*
X58447Y-57599D01*
X58649Y-57683D01*
X58868Y-57683D01*
X59070Y-57600D01*
X59225Y-57445D01*
X59309Y-57243D01*
X59309Y-57024D01*
X59309Y-57897D01*
X59048Y-57788D01*
X58630Y-57788D01*
X58244Y-57947D01*
X57948Y-58243D01*
X57788Y-58628D01*
X57788Y-59046D01*
X57947Y-59432D01*
X58087Y-59572D01*
X54062Y-59572D01*
X54062Y-56874D01*
X54050Y-56686D01*
X54001Y-56568D01*
X53914Y-56550D01*
X53843Y-56620D01*
X53843Y-56479D01*
X53825Y-56391D01*
X53646Y-56330D01*
X53457Y-56343D01*
X53339Y-56391D01*
X53321Y-56479D01*
X53582Y-56740D01*
X53843Y-56479D01*
X53843Y-56620D01*
X53653Y-56811D01*
X53914Y-57071D01*
X54001Y-57053D01*
X54062Y-56874D01*
X54062Y-59572D01*
X53843Y-59572D01*
X53843Y-57142D01*
X53582Y-56881D01*
X53511Y-56952D01*
X53511Y-56811D01*
X53251Y-56550D01*
X53163Y-56568D01*
X53102Y-56747D01*
X53114Y-56935D01*
X53163Y-57053D01*
X53251Y-57071D01*
X53511Y-56811D01*
X53511Y-56952D01*
X53321Y-57142D01*
X53339Y-57230D01*
X53518Y-57291D01*
X53707Y-57278D01*
X53825Y-57230D01*
X53843Y-57142D01*
X53843Y-59572D01*
X47236Y-59572D01*
X47236Y-55329D01*
X47171Y-55172D01*
X47052Y-55053D01*
X46895Y-54988D01*
X46726Y-54988D01*
X46570Y-55052D01*
X46509Y-55113D01*
X45931Y-55113D01*
X45208Y-54390D01*
X45208Y-54305D01*
X45143Y-54149D01*
X45024Y-54029D01*
X44868Y-53964D01*
X44699Y-53964D01*
X44543Y-54029D01*
X44423Y-54148D01*
X44358Y-54304D01*
X44358Y-54473D01*
X44422Y-54630D01*
X44542Y-54749D01*
X44698Y-54814D01*
X44784Y-54814D01*
X45312Y-55342D01*
X45250Y-55342D01*
X45094Y-55407D01*
X44974Y-55526D01*
X44909Y-55682D01*
X44909Y-55851D01*
X44974Y-56008D01*
X45093Y-56127D01*
X45249Y-56192D01*
X45418Y-56192D01*
X45575Y-56128D01*
X45694Y-56008D01*
X45759Y-55852D01*
X45759Y-55703D01*
X45807Y-55713D01*
X46509Y-55713D01*
X46569Y-55773D01*
X46726Y-55838D01*
X46895Y-55838D01*
X47051Y-55773D01*
X47171Y-55654D01*
X47235Y-55498D01*
X47236Y-55329D01*
X47236Y-59572D01*
X41912Y-59572D01*
X42051Y-59434D01*
X42211Y-59048D01*
X42211Y-58630D01*
X42052Y-58244D01*
X41756Y-57948D01*
X41371Y-57788D01*
X40953Y-57788D01*
X40567Y-57947D01*
X40427Y-58087D01*
X40427Y-56681D01*
X40506Y-56761D01*
X40709Y-56845D01*
X40927Y-56845D01*
X41130Y-56761D01*
X41268Y-56623D01*
X41268Y-56644D01*
X41306Y-56736D01*
X41377Y-56807D01*
X41468Y-56845D01*
X41568Y-56845D01*
X42168Y-56845D01*
X42260Y-56807D01*
X42330Y-56737D01*
X42368Y-56645D01*
X42368Y-56575D01*
X42385Y-56575D01*
X42492Y-56553D01*
X42492Y-56553D01*
X42583Y-56493D01*
X42796Y-56280D01*
X42796Y-56280D01*
X42836Y-56219D01*
X42857Y-56189D01*
X42857Y-56189D01*
X42878Y-56082D01*
X42878Y-56082D01*
X42878Y-51776D01*
X47362Y-51776D01*
X47469Y-51754D01*
X47469Y-51754D01*
X47560Y-51694D01*
X48956Y-50297D01*
X49129Y-50297D01*
X49304Y-50225D01*
X49427Y-50102D01*
X49566Y-50102D01*
X49674Y-50081D01*
X49674Y-50081D01*
X49764Y-50020D01*
X50178Y-49607D01*
X50178Y-49607D01*
X50239Y-49516D01*
X50239Y-49516D01*
X50242Y-49498D01*
X50260Y-49409D01*
X50260Y-49409D01*
X50260Y-49285D01*
X50305Y-49286D01*
X50699Y-49286D01*
X50791Y-49248D01*
X50861Y-49177D01*
X50899Y-49085D01*
X50899Y-48986D01*
X50899Y-48632D01*
X50871Y-48562D01*
X50899Y-48493D01*
X50899Y-48040D01*
X50861Y-47948D01*
X50791Y-47878D01*
X50699Y-47840D01*
X50600Y-47839D01*
X50565Y-47839D01*
X50502Y-47902D01*
X50502Y-48216D01*
X50837Y-48216D01*
X50899Y-48154D01*
X50899Y-48040D01*
X50899Y-48493D01*
X50899Y-48379D01*
X50837Y-48316D01*
X50502Y-48316D01*
X50502Y-48324D01*
X50402Y-48324D01*
X50402Y-48316D01*
X50394Y-48316D01*
X50394Y-48216D01*
X50402Y-48216D01*
X50402Y-47902D01*
X50340Y-47839D01*
X50305Y-47839D01*
X50260Y-47839D01*
X50260Y-47292D01*
X50337Y-47308D01*
X50598Y-47047D01*
X50593Y-47041D01*
X50663Y-46970D01*
X50669Y-46976D01*
X50930Y-46715D01*
X50911Y-46628D01*
X50733Y-46567D01*
X50544Y-46579D01*
X50426Y-46628D01*
X50408Y-46715D01*
X50381Y-46688D01*
X50340Y-46590D01*
X50221Y-46470D01*
X50079Y-46411D01*
X50187Y-46411D01*
X50279Y-46373D01*
X50350Y-46303D01*
X50388Y-46211D01*
X50388Y-46112D01*
X50388Y-46077D01*
X50325Y-46014D01*
X50011Y-46014D01*
X50011Y-46022D01*
X49911Y-46022D01*
X49911Y-46014D01*
X49903Y-46014D01*
X49903Y-45914D01*
X49911Y-45914D01*
X49911Y-45906D01*
X50011Y-45906D01*
X50011Y-45914D01*
X50325Y-45914D01*
X50388Y-45852D01*
X50388Y-45817D01*
X50388Y-45717D01*
X50350Y-45625D01*
X50279Y-45555D01*
X50187Y-45517D01*
X50090Y-45517D01*
X50090Y-45467D01*
X50025Y-45310D01*
X49906Y-45191D01*
X49750Y-45126D01*
X49581Y-45126D01*
X49424Y-45190D01*
X49363Y-45251D01*
X49192Y-45251D01*
X48431Y-45251D01*
X48351Y-45171D01*
X48195Y-45106D01*
X48026Y-45106D01*
X47869Y-45170D01*
X47793Y-45247D01*
X47793Y-45247D01*
X47759Y-45254D01*
X47661Y-45319D01*
X47583Y-45398D01*
X47518Y-45495D01*
X47506Y-45554D01*
X47456Y-45574D01*
X47386Y-45645D01*
X47348Y-45736D01*
X47348Y-45836D01*
X47348Y-46190D01*
X47376Y-46259D01*
X47348Y-46329D01*
X47348Y-46443D01*
X47410Y-46505D01*
X47745Y-46505D01*
X47745Y-46497D01*
X47845Y-46497D01*
X47845Y-46505D01*
X48179Y-46505D01*
X48242Y-46443D01*
X48242Y-46329D01*
X48213Y-46259D01*
X48242Y-46190D01*
X48242Y-46091D01*
X48242Y-45936D01*
X48350Y-45892D01*
X48431Y-45811D01*
X48942Y-45811D01*
X48942Y-45817D01*
X48942Y-46211D01*
X48967Y-46271D01*
X48864Y-46228D01*
X48695Y-46228D01*
X48539Y-46293D01*
X48419Y-46412D01*
X48354Y-46568D01*
X48354Y-46737D01*
X48381Y-46802D01*
X48381Y-47789D01*
X48301Y-47869D01*
X48242Y-48011D01*
X48242Y-46782D01*
X48242Y-46668D01*
X48179Y-46605D01*
X47845Y-46605D01*
X47845Y-46920D01*
X47907Y-46982D01*
X47942Y-46982D01*
X48042Y-46982D01*
X48134Y-46944D01*
X48204Y-46874D01*
X48242Y-46782D01*
X48242Y-48011D01*
X48236Y-48025D01*
X48236Y-48194D01*
X48300Y-48350D01*
X48420Y-48470D01*
X48576Y-48535D01*
X48745Y-48535D01*
X48901Y-48470D01*
X49021Y-48351D01*
X49086Y-48195D01*
X49086Y-48026D01*
X49021Y-47869D01*
X48941Y-47789D01*
X48941Y-47046D01*
X49019Y-47014D01*
X49139Y-46894D01*
X49204Y-46738D01*
X49204Y-46628D01*
X49600Y-47023D01*
X49619Y-47071D01*
X49700Y-47151D01*
X49700Y-48143D01*
X49620Y-48223D01*
X49555Y-48379D01*
X49555Y-48548D01*
X49619Y-48704D01*
X49700Y-48785D01*
X49700Y-49293D01*
X49450Y-49542D01*
X49427Y-49542D01*
X49304Y-49420D01*
X49130Y-49347D01*
X48941Y-49347D01*
X48766Y-49419D01*
X48632Y-49553D01*
X48560Y-49727D01*
X48560Y-49901D01*
X47745Y-50717D01*
X47745Y-46920D01*
X47745Y-46605D01*
X47410Y-46605D01*
X47348Y-46668D01*
X47348Y-46782D01*
X47386Y-46874D01*
X47456Y-46944D01*
X47548Y-46982D01*
X47647Y-46982D01*
X47682Y-46982D01*
X47745Y-46920D01*
X47745Y-50717D01*
X47246Y-51216D01*
X46254Y-51216D01*
X46254Y-47077D01*
X46254Y-46963D01*
X46191Y-46901D01*
X45857Y-46901D01*
X45857Y-47215D01*
X45919Y-47278D01*
X45954Y-47278D01*
X46054Y-47278D01*
X46145Y-47239D01*
X46216Y-47169D01*
X46254Y-47077D01*
X46254Y-51216D01*
X45757Y-51216D01*
X45757Y-47215D01*
X45757Y-46901D01*
X45422Y-46901D01*
X45360Y-46963D01*
X45360Y-47077D01*
X45398Y-47169D01*
X45468Y-47239D01*
X45560Y-47278D01*
X45659Y-47278D01*
X45694Y-47278D01*
X45757Y-47215D01*
X45757Y-51216D01*
X42878Y-51216D01*
X42878Y-48659D01*
X44774Y-46762D01*
X44774Y-46762D01*
X44774Y-46762D01*
X44978Y-46559D01*
X45386Y-46559D01*
X45360Y-46624D01*
X45360Y-46738D01*
X45422Y-46801D01*
X45757Y-46801D01*
X45757Y-46793D01*
X45857Y-46793D01*
X45857Y-46801D01*
X46191Y-46801D01*
X46254Y-46738D01*
X46254Y-46704D01*
X46422Y-46704D01*
X46579Y-46640D01*
X46698Y-46520D01*
X46763Y-46364D01*
X46763Y-46195D01*
X46699Y-46039D01*
X46579Y-45919D01*
X46423Y-45854D01*
X46254Y-45854D01*
X46166Y-45890D01*
X46145Y-45870D01*
X46054Y-45832D01*
X45954Y-45832D01*
X45560Y-45832D01*
X45468Y-45870D01*
X45398Y-45940D01*
X45373Y-45999D01*
X44862Y-45999D01*
X44755Y-46020D01*
X44724Y-46040D01*
X44664Y-46081D01*
X44576Y-46168D01*
X42996Y-44588D01*
X42996Y-44553D01*
X43076Y-44473D01*
X43141Y-44317D01*
X43141Y-44316D01*
X43189Y-44364D01*
X43281Y-44402D01*
X43380Y-44402D01*
X43930Y-44402D01*
X44022Y-44365D01*
X44093Y-44294D01*
X44131Y-44202D01*
X44131Y-44103D01*
X44131Y-44103D01*
X44160Y-44174D01*
X44308Y-44322D01*
X44501Y-44402D01*
X44710Y-44403D01*
X44903Y-44323D01*
X45051Y-44175D01*
X45106Y-44042D01*
X45160Y-44174D01*
X45308Y-44322D01*
X45501Y-44402D01*
X45710Y-44403D01*
X45903Y-44323D01*
X46051Y-44175D01*
X46106Y-44042D01*
X46160Y-44174D01*
X46308Y-44322D01*
X46501Y-44402D01*
X46710Y-44403D01*
X46806Y-44363D01*
X46806Y-44470D01*
X46478Y-44798D01*
X45202Y-44798D01*
X45122Y-44718D01*
X44966Y-44653D01*
X44797Y-44653D01*
X44641Y-44718D01*
X44521Y-44837D01*
X44456Y-44993D01*
X44456Y-45162D01*
X44521Y-45319D01*
X44640Y-45438D01*
X44796Y-45503D01*
X44853Y-45503D01*
X44915Y-45653D01*
X45034Y-45773D01*
X45190Y-45838D01*
X45359Y-45838D01*
X45516Y-45773D01*
X45596Y-45693D01*
X46929Y-45693D01*
X47036Y-45672D01*
X47036Y-45672D01*
X47127Y-45611D01*
X47569Y-45169D01*
X47682Y-45169D01*
X47838Y-45104D01*
X47958Y-44985D01*
X48023Y-44829D01*
X48023Y-44659D01*
X47958Y-44503D01*
X47839Y-44384D01*
X47798Y-44366D01*
X47903Y-44323D01*
X48051Y-44175D01*
X48106Y-44042D01*
X48160Y-44174D01*
X48308Y-44322D01*
X48501Y-44402D01*
X48710Y-44403D01*
X48903Y-44323D01*
X49051Y-44175D01*
X49106Y-44042D01*
X49160Y-44174D01*
X49308Y-44322D01*
X49501Y-44402D01*
X49710Y-44403D01*
X49903Y-44323D01*
X50051Y-44175D01*
X50106Y-44042D01*
X50160Y-44174D01*
X50308Y-44322D01*
X50501Y-44402D01*
X50710Y-44403D01*
X50903Y-44323D01*
X51051Y-44175D01*
X51131Y-43982D01*
X51131Y-43773D01*
X51051Y-43580D01*
X50904Y-43433D01*
X50771Y-43377D01*
X50903Y-43323D01*
X51051Y-43175D01*
X51131Y-42982D01*
X51131Y-42773D01*
X51051Y-42580D01*
X50904Y-42433D01*
X50771Y-42377D01*
X50903Y-42323D01*
X51051Y-42175D01*
X51131Y-41982D01*
X51131Y-41773D01*
X51051Y-41580D01*
X50904Y-41433D01*
X50777Y-41380D01*
X50879Y-41338D01*
X50903Y-41245D01*
X50606Y-40948D01*
X50535Y-41019D01*
X50535Y-40877D01*
X50238Y-40580D01*
X50145Y-40605D01*
X50109Y-40708D01*
X50066Y-40605D01*
X49974Y-40580D01*
X49677Y-40877D01*
X49974Y-41175D01*
X50066Y-41150D01*
X50103Y-41047D01*
X50145Y-41150D01*
X50238Y-41175D01*
X50535Y-40877D01*
X50535Y-41019D01*
X50309Y-41245D01*
X50333Y-41338D01*
X50443Y-41377D01*
X50309Y-41432D01*
X50161Y-41580D01*
X50106Y-41713D01*
X50051Y-41580D01*
X49904Y-41433D01*
X49777Y-41380D01*
X49879Y-41338D01*
X49903Y-41245D01*
X49606Y-40948D01*
X49309Y-41245D01*
X49333Y-41338D01*
X49443Y-41377D01*
X49309Y-41432D01*
X49161Y-41580D01*
X49106Y-41713D01*
X49051Y-41580D01*
X48904Y-41433D01*
X48771Y-41377D01*
X48903Y-41323D01*
X49051Y-41175D01*
X49103Y-41049D01*
X49145Y-41150D01*
X49238Y-41175D01*
X49535Y-40877D01*
X49238Y-40580D01*
X49145Y-40605D01*
X49107Y-40715D01*
X49051Y-40580D01*
X48904Y-40433D01*
X48889Y-40427D01*
X49330Y-40427D01*
X49309Y-40510D01*
X49606Y-40807D01*
X49903Y-40510D01*
X49881Y-40427D01*
X50330Y-40427D01*
X50309Y-40510D01*
X50606Y-40807D01*
X50903Y-40510D01*
X50881Y-40427D01*
X51550Y-40427D01*
X51539Y-40438D01*
X51474Y-40594D01*
X51474Y-40763D01*
X51539Y-40919D01*
X51658Y-41039D01*
X51734Y-41070D01*
X51718Y-41110D01*
X51718Y-41210D01*
X51718Y-41564D01*
X51747Y-41633D01*
X51718Y-41703D01*
X51718Y-41817D01*
X51780Y-41879D01*
X52115Y-41879D01*
X52115Y-41871D01*
X52215Y-41871D01*
X52215Y-41879D01*
X52549Y-41879D01*
X52612Y-41817D01*
X52612Y-41703D01*
X52583Y-41633D01*
X52612Y-41564D01*
X52612Y-41465D01*
X52612Y-41111D01*
X52574Y-41019D01*
X52504Y-40949D01*
X52440Y-40922D01*
X52440Y-40922D01*
X52427Y-40855D01*
X52424Y-40837D01*
X52424Y-40837D01*
X52363Y-40746D01*
X52324Y-40708D01*
X52324Y-40594D01*
X52260Y-40438D01*
X52248Y-40427D01*
X54175Y-40427D01*
X54144Y-40501D01*
X54144Y-40601D01*
X54144Y-41151D01*
X54182Y-41243D01*
X54252Y-41313D01*
X54344Y-41351D01*
X54369Y-41351D01*
X54369Y-41564D01*
X53507Y-42426D01*
X53297Y-42426D01*
X53182Y-42449D01*
X53112Y-42495D01*
X53060Y-42369D01*
X52926Y-42235D01*
X52752Y-42162D01*
X52609Y-42162D01*
X52612Y-42156D01*
X52612Y-42042D01*
X52549Y-41979D01*
X52215Y-41979D01*
X52215Y-42294D01*
X52272Y-42351D01*
X52255Y-42368D01*
X52182Y-42542D01*
X52182Y-42731D01*
X52254Y-42906D01*
X52388Y-43040D01*
X52508Y-43090D01*
X52465Y-43134D01*
X52400Y-43231D01*
X52377Y-43346D01*
X52377Y-44639D01*
X52317Y-44699D01*
X52252Y-44856D01*
X52252Y-45025D01*
X52316Y-45181D01*
X52436Y-45301D01*
X52534Y-45341D01*
X52534Y-45362D01*
X52415Y-45362D01*
X52259Y-45426D01*
X52139Y-45546D01*
X52115Y-45605D01*
X52115Y-42294D01*
X52115Y-41979D01*
X51780Y-41979D01*
X51718Y-42042D01*
X51718Y-42156D01*
X51756Y-42248D01*
X51826Y-42318D01*
X51918Y-42356D01*
X52017Y-42356D01*
X52052Y-42356D01*
X52115Y-42294D01*
X52115Y-45605D01*
X52075Y-45702D01*
X52074Y-45871D01*
X52139Y-46027D01*
X52200Y-46088D01*
X52200Y-46454D01*
X52183Y-46479D01*
X52160Y-46594D01*
X52160Y-48655D01*
X52100Y-48715D01*
X52035Y-48871D01*
X52035Y-49040D01*
X52100Y-49197D01*
X52219Y-49316D01*
X52375Y-49381D01*
X52534Y-49381D01*
X52534Y-51403D01*
X52529Y-51403D01*
X52175Y-51403D01*
X52106Y-51432D01*
X52036Y-51403D01*
X51922Y-51403D01*
X51860Y-51465D01*
X51860Y-51800D01*
X51868Y-51800D01*
X51868Y-51900D01*
X51860Y-51900D01*
X51860Y-52234D01*
X51922Y-52297D01*
X52036Y-52297D01*
X52106Y-52268D01*
X52175Y-52297D01*
X52274Y-52297D01*
X52534Y-52297D01*
X52534Y-53403D01*
X52478Y-53487D01*
X52455Y-53602D01*
X52455Y-54758D01*
X52395Y-54817D01*
X52330Y-54974D01*
X52330Y-55059D01*
X51760Y-55630D01*
X51760Y-52234D01*
X51760Y-51900D01*
X51760Y-51800D01*
X51760Y-51465D01*
X51697Y-51403D01*
X51583Y-51403D01*
X51538Y-51422D01*
X51538Y-45752D01*
X51465Y-45577D01*
X51332Y-45444D01*
X51157Y-45371D01*
X51136Y-45371D01*
X51136Y-40953D01*
X51124Y-40745D01*
X51066Y-40605D01*
X50974Y-40580D01*
X50677Y-40877D01*
X50974Y-41175D01*
X51066Y-41150D01*
X51136Y-40953D01*
X51136Y-45371D01*
X50968Y-45371D01*
X50794Y-45443D01*
X50660Y-45577D01*
X50588Y-45751D01*
X50587Y-45940D01*
X50660Y-46115D01*
X50793Y-46248D01*
X50968Y-46321D01*
X51157Y-46321D01*
X51331Y-46249D01*
X51465Y-46115D01*
X51537Y-45941D01*
X51538Y-45752D01*
X51538Y-51422D01*
X51491Y-51441D01*
X51479Y-51454D01*
X51479Y-49787D01*
X51406Y-49613D01*
X51273Y-49479D01*
X51149Y-49427D01*
X51149Y-47111D01*
X51137Y-46922D01*
X51088Y-46804D01*
X51000Y-46786D01*
X50930Y-46857D01*
X50740Y-47047D01*
X51000Y-47308D01*
X51088Y-47289D01*
X51149Y-47111D01*
X51149Y-49427D01*
X51098Y-49406D01*
X50930Y-49406D01*
X50930Y-47378D01*
X50669Y-47117D01*
X50408Y-47378D01*
X50426Y-47466D01*
X50605Y-47527D01*
X50794Y-47515D01*
X50911Y-47466D01*
X50930Y-47378D01*
X50930Y-49406D01*
X50909Y-49406D01*
X50735Y-49478D01*
X50601Y-49612D01*
X50529Y-49786D01*
X50528Y-49975D01*
X50601Y-50150D01*
X50734Y-50284D01*
X50909Y-50356D01*
X51098Y-50356D01*
X51272Y-50284D01*
X51406Y-50151D01*
X51478Y-49976D01*
X51479Y-49787D01*
X51479Y-51454D01*
X51421Y-51511D01*
X51383Y-51603D01*
X51383Y-51702D01*
X51383Y-51737D01*
X51445Y-51800D01*
X51760Y-51800D01*
X51760Y-51900D01*
X51445Y-51900D01*
X51383Y-51962D01*
X51383Y-51997D01*
X51383Y-52097D01*
X51421Y-52189D01*
X51491Y-52259D01*
X51583Y-52297D01*
X51697Y-52297D01*
X51760Y-52234D01*
X51760Y-55630D01*
X51174Y-56215D01*
X48352Y-56215D01*
X48292Y-56155D01*
X48136Y-56090D01*
X47967Y-56090D01*
X47810Y-56155D01*
X47691Y-56274D01*
X47626Y-56430D01*
X47626Y-56599D01*
X47690Y-56756D01*
X47810Y-56875D01*
X47966Y-56940D01*
X48135Y-56940D01*
X48291Y-56876D01*
X48352Y-56815D01*
X51299Y-56815D01*
X51299Y-56815D01*
X51414Y-56792D01*
X51414Y-56792D01*
X51511Y-56727D01*
X52264Y-55974D01*
X52274Y-55997D01*
X52407Y-56130D01*
X52582Y-56203D01*
X52771Y-56203D01*
X52945Y-56131D01*
X53079Y-55997D01*
X53152Y-55823D01*
X53152Y-55634D01*
X53080Y-55459D01*
X53018Y-55397D01*
X53115Y-55300D01*
X53180Y-55143D01*
X53180Y-54974D01*
X53116Y-54818D01*
X53055Y-54758D01*
X53055Y-54010D01*
X53060Y-54010D01*
X53414Y-54010D01*
X53484Y-53981D01*
X53553Y-54009D01*
X53652Y-54010D01*
X53748Y-54010D01*
X53748Y-54025D01*
X53443Y-54329D01*
X53383Y-54420D01*
X53361Y-54527D01*
X53361Y-54757D01*
X53281Y-54837D01*
X53216Y-54993D01*
X53216Y-55162D01*
X53281Y-55319D01*
X53400Y-55438D01*
X53556Y-55503D01*
X53599Y-55503D01*
X53599Y-55507D01*
X53671Y-55682D01*
X53805Y-55815D01*
X53979Y-55888D01*
X54168Y-55888D01*
X54343Y-55816D01*
X54477Y-55682D01*
X54549Y-55508D01*
X54549Y-55319D01*
X54477Y-55144D01*
X54354Y-55021D01*
X54354Y-54919D01*
X54419Y-54854D01*
X54532Y-54854D01*
X54689Y-54789D01*
X54808Y-54670D01*
X54873Y-54514D01*
X54873Y-54344D01*
X54809Y-54188D01*
X54728Y-54108D01*
X54728Y-53838D01*
X54711Y-53749D01*
X54707Y-53731D01*
X54707Y-53731D01*
X54646Y-53640D01*
X54433Y-53427D01*
X54433Y-51462D01*
X54513Y-51382D01*
X54578Y-51226D01*
X54578Y-51057D01*
X54532Y-50945D01*
X54532Y-49542D01*
X54575Y-49499D01*
X54575Y-49184D01*
X54568Y-49184D01*
X54568Y-49084D01*
X54575Y-49084D01*
X54575Y-49076D01*
X54675Y-49076D01*
X54675Y-49084D01*
X55010Y-49084D01*
X55072Y-49022D01*
X55073Y-48908D01*
X55044Y-48838D01*
X55072Y-48769D01*
X55073Y-48670D01*
X55073Y-48316D01*
X55035Y-48224D01*
X54964Y-48153D01*
X54872Y-48115D01*
X54773Y-48115D01*
X54633Y-48115D01*
X54657Y-48057D01*
X54657Y-47888D01*
X54592Y-47732D01*
X54532Y-47671D01*
X54532Y-47480D01*
X54532Y-47165D01*
X54509Y-47050D01*
X54492Y-47025D01*
X54492Y-45163D01*
X54553Y-45103D01*
X54617Y-44947D01*
X54617Y-44861D01*
X55307Y-44171D01*
X55244Y-44324D01*
X55244Y-44493D01*
X55308Y-44649D01*
X55428Y-44769D01*
X55584Y-44834D01*
X55585Y-44834D01*
X55585Y-45210D01*
X55525Y-45270D01*
X55460Y-45426D01*
X55460Y-45595D01*
X55525Y-45752D01*
X55644Y-45871D01*
X55800Y-45936D01*
X55969Y-45936D01*
X56126Y-45872D01*
X56245Y-45752D01*
X56310Y-45596D01*
X56310Y-45427D01*
X56246Y-45271D01*
X56185Y-45210D01*
X56185Y-44625D01*
X56162Y-44511D01*
X56097Y-44413D01*
X56097Y-44413D01*
X56094Y-44410D01*
X56094Y-44325D01*
X56029Y-44169D01*
X55910Y-44049D01*
X55754Y-43984D01*
X55585Y-43984D01*
X55431Y-44047D01*
X56881Y-42597D01*
X56881Y-42597D01*
X56946Y-42500D01*
X56969Y-42385D01*
X56969Y-42385D01*
X56969Y-41269D01*
X57114Y-41124D01*
X57194Y-40931D01*
X57194Y-40722D01*
X57114Y-40529D01*
X57012Y-40427D01*
X58087Y-40427D01*
X57948Y-40565D01*
X57788Y-40951D01*
X57788Y-41369D01*
X57947Y-41755D01*
X58243Y-42051D01*
X58628Y-42211D01*
X59046Y-42211D01*
X59432Y-42052D01*
X59572Y-41912D01*
X59572Y-58087D01*
X59572Y-58087D01*
G37*
G54D23*
X59572Y-58087D02*
X59434Y-57948D01*
X59309Y-57897D01*
X59309Y-57024D01*
X59226Y-56822D01*
X59087Y-56683D01*
X59109Y-56683D01*
X59201Y-56645D01*
X59271Y-56575D01*
X59309Y-56483D01*
X59309Y-56384D01*
X59309Y-55784D01*
X59271Y-55692D01*
X59201Y-55622D01*
X59109Y-55583D01*
X59010Y-55583D01*
X58745Y-55583D01*
X58745Y-52511D01*
X58745Y-46113D01*
X58742Y-45979D01*
X58742Y-43835D01*
X58628Y-43559D01*
X58417Y-43348D01*
X58141Y-43234D01*
X57843Y-43234D01*
X57567Y-43348D01*
X57356Y-43558D01*
X57242Y-43834D01*
X57241Y-44132D01*
X57355Y-44408D01*
X57566Y-44619D01*
X57842Y-44734D01*
X58140Y-44734D01*
X58416Y-44620D01*
X58627Y-44409D01*
X58741Y-44134D01*
X58742Y-43835D01*
X58742Y-45979D01*
X58737Y-45815D01*
X58638Y-45576D01*
X58522Y-45524D01*
X58452Y-45595D01*
X58452Y-45453D01*
X58400Y-45337D01*
X58121Y-45230D01*
X57823Y-45238D01*
X57584Y-45337D01*
X57532Y-45453D01*
X57992Y-45913D01*
X58452Y-45453D01*
X58452Y-45595D01*
X58062Y-45984D01*
X58522Y-46444D01*
X58638Y-46392D01*
X58745Y-46113D01*
X58745Y-52511D01*
X58742Y-52377D01*
X58742Y-50233D01*
X58742Y-50233D01*
X58742Y-48434D01*
X58742Y-47434D01*
X58704Y-47342D01*
X58633Y-47272D01*
X58542Y-47234D01*
X58452Y-47234D01*
X58452Y-46514D01*
X57992Y-46054D01*
X57921Y-46125D01*
X57921Y-45984D01*
X57461Y-45524D01*
X57345Y-45576D01*
X57238Y-45854D01*
X57246Y-46153D01*
X57345Y-46392D01*
X57461Y-46444D01*
X57921Y-45984D01*
X57921Y-46125D01*
X57532Y-46514D01*
X57584Y-46630D01*
X57862Y-46737D01*
X58160Y-46730D01*
X58400Y-46630D01*
X58452Y-46514D01*
X58452Y-47234D01*
X58442Y-47234D01*
X57442Y-47234D01*
X57350Y-47272D01*
X57280Y-47342D01*
X57242Y-47434D01*
X57242Y-47533D01*
X57242Y-48533D01*
X57280Y-48625D01*
X57350Y-48696D01*
X57442Y-48734D01*
X57541Y-48734D01*
X58541Y-48734D01*
X58633Y-48696D01*
X58703Y-48626D01*
X58742Y-48534D01*
X58742Y-48434D01*
X58742Y-50233D01*
X58628Y-49957D01*
X58417Y-49746D01*
X58141Y-49632D01*
X57843Y-49631D01*
X57567Y-49745D01*
X57356Y-49956D01*
X57242Y-50232D01*
X57241Y-50530D01*
X57355Y-50806D01*
X57566Y-51017D01*
X57842Y-51131D01*
X58140Y-51132D01*
X58416Y-51018D01*
X58627Y-50807D01*
X58741Y-50531D01*
X58742Y-50233D01*
X58742Y-52377D01*
X58737Y-52213D01*
X58638Y-51973D01*
X58522Y-51921D01*
X58452Y-51992D01*
X58452Y-51851D01*
X58400Y-51735D01*
X58121Y-51628D01*
X57823Y-51636D01*
X57584Y-51735D01*
X57532Y-51851D01*
X57992Y-52311D01*
X58452Y-51851D01*
X58452Y-51992D01*
X58062Y-52381D01*
X58522Y-52841D01*
X58638Y-52789D01*
X58745Y-52511D01*
X58745Y-55583D01*
X58742Y-55583D01*
X58742Y-54832D01*
X58742Y-53832D01*
X58704Y-53740D01*
X58633Y-53670D01*
X58542Y-53631D01*
X58452Y-53631D01*
X58452Y-52912D01*
X57992Y-52452D01*
X57921Y-52523D01*
X57921Y-52381D01*
X57461Y-51921D01*
X57345Y-51973D01*
X57238Y-52252D01*
X57246Y-52550D01*
X57345Y-52789D01*
X57461Y-52841D01*
X57921Y-52381D01*
X57921Y-52523D01*
X57532Y-52912D01*
X57584Y-53028D01*
X57862Y-53135D01*
X58160Y-53127D01*
X58400Y-53028D01*
X58452Y-52912D01*
X58452Y-53631D01*
X58442Y-53631D01*
X57442Y-53631D01*
X57350Y-53669D01*
X57280Y-53740D01*
X57242Y-53831D01*
X57242Y-53931D01*
X57242Y-54931D01*
X57280Y-55023D01*
X57350Y-55093D01*
X57442Y-55131D01*
X57541Y-55131D01*
X58541Y-55131D01*
X58633Y-55093D01*
X58703Y-55023D01*
X58742Y-54931D01*
X58742Y-54832D01*
X58742Y-55583D01*
X58410Y-55583D01*
X58318Y-55621D01*
X58248Y-55692D01*
X58209Y-55783D01*
X58209Y-55856D01*
X56310Y-55859D01*
X56310Y-48577D01*
X56246Y-48420D01*
X56185Y-48360D01*
X56185Y-48214D01*
X56245Y-48154D01*
X56310Y-47998D01*
X56310Y-47829D01*
X56246Y-47672D01*
X56126Y-47553D01*
X55970Y-47488D01*
X55801Y-47488D01*
X55645Y-47552D01*
X55525Y-47672D01*
X55460Y-47828D01*
X55460Y-47997D01*
X55525Y-48153D01*
X55585Y-48214D01*
X55585Y-48360D01*
X55525Y-48420D01*
X55460Y-48576D01*
X55460Y-48745D01*
X55525Y-48901D01*
X55644Y-49021D01*
X55800Y-49086D01*
X55969Y-49086D01*
X56126Y-49021D01*
X56245Y-48902D01*
X56310Y-48746D01*
X56310Y-48577D01*
X56310Y-55859D01*
X56035Y-55859D01*
X56035Y-51844D01*
X55970Y-51688D01*
X55870Y-51588D01*
X55870Y-50970D01*
X55930Y-50910D01*
X55995Y-50754D01*
X55995Y-50585D01*
X55931Y-50428D01*
X55811Y-50309D01*
X55655Y-50244D01*
X55486Y-50244D01*
X55330Y-50308D01*
X55210Y-50428D01*
X55145Y-50584D01*
X55145Y-50753D01*
X55210Y-50909D01*
X55270Y-50970D01*
X55270Y-51667D01*
X55250Y-51688D01*
X55185Y-51844D01*
X55185Y-52013D01*
X55249Y-52169D01*
X55369Y-52289D01*
X55525Y-52354D01*
X55694Y-52354D01*
X55850Y-52289D01*
X55970Y-52170D01*
X56035Y-52014D01*
X56035Y-51844D01*
X56035Y-55859D01*
X55073Y-55861D01*
X55073Y-49361D01*
X55072Y-49247D01*
X55010Y-49184D01*
X54675Y-49184D01*
X54675Y-49499D01*
X54738Y-49561D01*
X54773Y-49561D01*
X54872Y-49561D01*
X54964Y-49523D01*
X55035Y-49453D01*
X55073Y-49361D01*
X55073Y-55861D01*
X54960Y-55861D01*
X54906Y-55872D01*
X54853Y-55883D01*
X54853Y-55883D01*
X54853Y-55883D01*
X54807Y-55913D01*
X54762Y-55943D01*
X54753Y-55952D01*
X54699Y-55952D01*
X54543Y-56017D01*
X54423Y-56136D01*
X54358Y-56293D01*
X54358Y-56462D01*
X54422Y-56618D01*
X54542Y-56738D01*
X54698Y-56802D01*
X54867Y-56803D01*
X55023Y-56738D01*
X55143Y-56619D01*
X55208Y-56462D01*
X55208Y-56421D01*
X58209Y-56416D01*
X58209Y-56483D01*
X58247Y-56575D01*
X58318Y-56645D01*
X58409Y-56683D01*
X58432Y-56683D01*
X58293Y-56821D01*
X58209Y-57023D01*
X58209Y-57242D01*
X58293Y-57445D01*
X58447Y-57599D01*
X58649Y-57683D01*
X58868Y-57683D01*
X59070Y-57600D01*
X59225Y-57445D01*
X59309Y-57243D01*
X59309Y-57024D01*
X59309Y-57897D01*
X59048Y-57788D01*
X58630Y-57788D01*
X58244Y-57947D01*
X57948Y-58243D01*
X57788Y-58628D01*
X57788Y-59046D01*
X57947Y-59432D01*
X58087Y-59572D01*
X54062Y-59572D01*
X54062Y-56874D01*
X54050Y-56686D01*
X54001Y-56568D01*
X53914Y-56550D01*
X53843Y-56620D01*
X53843Y-56479D01*
X53825Y-56391D01*
X53646Y-56330D01*
X53457Y-56343D01*
X53339Y-56391D01*
X53321Y-56479D01*
X53582Y-56740D01*
X53843Y-56479D01*
X53843Y-56620D01*
X53653Y-56811D01*
X53914Y-57071D01*
X54001Y-57053D01*
X54062Y-56874D01*
X54062Y-59572D01*
X53843Y-59572D01*
X53843Y-57142D01*
X53582Y-56881D01*
X53511Y-56952D01*
X53511Y-56811D01*
X53251Y-56550D01*
X53163Y-56568D01*
X53102Y-56747D01*
X53114Y-56935D01*
X53163Y-57053D01*
X53251Y-57071D01*
X53511Y-56811D01*
X53511Y-56952D01*
X53321Y-57142D01*
X53339Y-57230D01*
X53518Y-57291D01*
X53707Y-57278D01*
X53825Y-57230D01*
X53843Y-57142D01*
X53843Y-59572D01*
X47236Y-59572D01*
X47236Y-55329D01*
X47171Y-55172D01*
X47052Y-55053D01*
X46895Y-54988D01*
X46726Y-54988D01*
X46570Y-55052D01*
X46509Y-55113D01*
X45931Y-55113D01*
X45208Y-54390D01*
X45208Y-54305D01*
X45143Y-54149D01*
X45024Y-54029D01*
X44868Y-53964D01*
X44699Y-53964D01*
X44543Y-54029D01*
X44423Y-54148D01*
X44358Y-54304D01*
X44358Y-54473D01*
X44422Y-54630D01*
X44542Y-54749D01*
X44698Y-54814D01*
X44784Y-54814D01*
X45312Y-55342D01*
X45250Y-55342D01*
X45094Y-55407D01*
X44974Y-55526D01*
X44909Y-55682D01*
X44909Y-55851D01*
X44974Y-56008D01*
X45093Y-56127D01*
X45249Y-56192D01*
X45418Y-56192D01*
X45575Y-56128D01*
X45694Y-56008D01*
X45759Y-55852D01*
X45759Y-55703D01*
X45807Y-55713D01*
X46509Y-55713D01*
X46569Y-55773D01*
X46726Y-55838D01*
X46895Y-55838D01*
X47051Y-55773D01*
X47171Y-55654D01*
X47235Y-55498D01*
X47236Y-55329D01*
X47236Y-59572D01*
X41912Y-59572D01*
X42051Y-59434D01*
X42211Y-59048D01*
X42211Y-58630D01*
X42052Y-58244D01*
X41756Y-57948D01*
X41371Y-57788D01*
X40953Y-57788D01*
X40567Y-57947D01*
X40427Y-58087D01*
X40427Y-56681D01*
X40506Y-56761D01*
X40709Y-56845D01*
X40927Y-56845D01*
X41130Y-56761D01*
X41268Y-56623D01*
X41268Y-56644D01*
X41306Y-56736D01*
X41377Y-56807D01*
X41468Y-56845D01*
X41568Y-56845D01*
X42168Y-56845D01*
X42260Y-56807D01*
X42330Y-56737D01*
X42368Y-56645D01*
X42368Y-56575D01*
X42385Y-56575D01*
X42492Y-56553D01*
X42492Y-56553D01*
X42583Y-56493D01*
X42796Y-56280D01*
X42796Y-56280D01*
X42836Y-56219D01*
X42857Y-56189D01*
X42857Y-56189D01*
X42878Y-56082D01*
X42878Y-56082D01*
X42878Y-51776D01*
X47362Y-51776D01*
X47469Y-51754D01*
X47469Y-51754D01*
X47560Y-51694D01*
X48956Y-50297D01*
X49129Y-50297D01*
X49304Y-50225D01*
X49427Y-50102D01*
X49566Y-50102D01*
X49674Y-50081D01*
X49674Y-50081D01*
X49764Y-50020D01*
X50178Y-49607D01*
X50178Y-49607D01*
X50239Y-49516D01*
X50239Y-49516D01*
X50242Y-49498D01*
X50260Y-49409D01*
X50260Y-49409D01*
X50260Y-49285D01*
X50305Y-49286D01*
X50699Y-49286D01*
X50791Y-49248D01*
X50861Y-49177D01*
X50899Y-49085D01*
X50899Y-48986D01*
X50899Y-48632D01*
X50871Y-48562D01*
X50899Y-48493D01*
X50899Y-48040D01*
X50861Y-47948D01*
X50791Y-47878D01*
X50699Y-47840D01*
X50600Y-47839D01*
X50565Y-47839D01*
X50502Y-47902D01*
X50502Y-48216D01*
X50837Y-48216D01*
X50899Y-48154D01*
X50899Y-48040D01*
X50899Y-48493D01*
X50899Y-48379D01*
X50837Y-48316D01*
X50502Y-48316D01*
X50502Y-48324D01*
X50402Y-48324D01*
X50402Y-48316D01*
X50394Y-48316D01*
X50394Y-48216D01*
X50402Y-48216D01*
X50402Y-47902D01*
X50340Y-47839D01*
X50305Y-47839D01*
X50260Y-47839D01*
X50260Y-47292D01*
X50337Y-47308D01*
X50598Y-47047D01*
X50593Y-47041D01*
X50663Y-46970D01*
X50669Y-46976D01*
X50930Y-46715D01*
X50911Y-46628D01*
X50733Y-46567D01*
X50544Y-46579D01*
X50426Y-46628D01*
X50408Y-46715D01*
X50381Y-46688D01*
X50340Y-46590D01*
X50221Y-46470D01*
X50079Y-46411D01*
X50187Y-46411D01*
X50279Y-46373D01*
X50350Y-46303D01*
X50388Y-46211D01*
X50388Y-46112D01*
X50388Y-46077D01*
X50325Y-46014D01*
X50011Y-46014D01*
X50011Y-46022D01*
X49911Y-46022D01*
X49911Y-46014D01*
X49903Y-46014D01*
X49903Y-45914D01*
X49911Y-45914D01*
X49911Y-45906D01*
X50011Y-45906D01*
X50011Y-45914D01*
X50325Y-45914D01*
X50388Y-45852D01*
X50388Y-45817D01*
X50388Y-45717D01*
X50350Y-45625D01*
X50279Y-45555D01*
X50187Y-45517D01*
X50090Y-45517D01*
X50090Y-45467D01*
X50025Y-45310D01*
X49906Y-45191D01*
X49750Y-45126D01*
X49581Y-45126D01*
X49424Y-45190D01*
X49363Y-45251D01*
X49192Y-45251D01*
X48431Y-45251D01*
X48351Y-45171D01*
X48195Y-45106D01*
X48026Y-45106D01*
X47869Y-45170D01*
X47793Y-45247D01*
X47793Y-45247D01*
X47759Y-45254D01*
X47661Y-45319D01*
X47583Y-45398D01*
X47518Y-45495D01*
X47506Y-45554D01*
X47456Y-45574D01*
X47386Y-45645D01*
X47348Y-45736D01*
X47348Y-45836D01*
X47348Y-46190D01*
X47376Y-46259D01*
X47348Y-46329D01*
X47348Y-46443D01*
X47410Y-46505D01*
X47745Y-46505D01*
X47745Y-46497D01*
X47845Y-46497D01*
X47845Y-46505D01*
X48179Y-46505D01*
X48242Y-46443D01*
X48242Y-46329D01*
X48213Y-46259D01*
X48242Y-46190D01*
X48242Y-46091D01*
X48242Y-45936D01*
X48350Y-45892D01*
X48431Y-45811D01*
X48942Y-45811D01*
X48942Y-45817D01*
X48942Y-46211D01*
X48967Y-46271D01*
X48864Y-46228D01*
X48695Y-46228D01*
X48539Y-46293D01*
X48419Y-46412D01*
X48354Y-46568D01*
X48354Y-46737D01*
X48381Y-46802D01*
X48381Y-47789D01*
X48301Y-47869D01*
X48242Y-48011D01*
X48242Y-46782D01*
X48242Y-46668D01*
X48179Y-46605D01*
X47845Y-46605D01*
X47845Y-46920D01*
X47907Y-46982D01*
X47942Y-46982D01*
X48042Y-46982D01*
X48134Y-46944D01*
X48204Y-46874D01*
X48242Y-46782D01*
X48242Y-48011D01*
X48236Y-48025D01*
X48236Y-48194D01*
X48300Y-48350D01*
X48420Y-48470D01*
X48576Y-48535D01*
X48745Y-48535D01*
X48901Y-48470D01*
X49021Y-48351D01*
X49086Y-48195D01*
X49086Y-48026D01*
X49021Y-47869D01*
X48941Y-47789D01*
X48941Y-47046D01*
X49019Y-47014D01*
X49139Y-46894D01*
X49204Y-46738D01*
X49204Y-46628D01*
X49600Y-47023D01*
X49619Y-47071D01*
X49700Y-47151D01*
X49700Y-48143D01*
X49620Y-48223D01*
X49555Y-48379D01*
X49555Y-48548D01*
X49619Y-48704D01*
X49700Y-48785D01*
X49700Y-49293D01*
X49450Y-49542D01*
X49427Y-49542D01*
X49304Y-49420D01*
X49130Y-49347D01*
X48941Y-49347D01*
X48766Y-49419D01*
X48632Y-49553D01*
X48560Y-49727D01*
X48560Y-49901D01*
X47745Y-50717D01*
X47745Y-46920D01*
X47745Y-46605D01*
X47410Y-46605D01*
X47348Y-46668D01*
X47348Y-46782D01*
X47386Y-46874D01*
X47456Y-46944D01*
X47548Y-46982D01*
X47647Y-46982D01*
X47682Y-46982D01*
X47745Y-46920D01*
X47745Y-50717D01*
X47246Y-51216D01*
X46254Y-51216D01*
X46254Y-47077D01*
X46254Y-46963D01*
X46191Y-46901D01*
X45857Y-46901D01*
X45857Y-47215D01*
X45919Y-47278D01*
X45954Y-47278D01*
X46054Y-47278D01*
X46145Y-47239D01*
X46216Y-47169D01*
X46254Y-47077D01*
X46254Y-51216D01*
X45757Y-51216D01*
X45757Y-47215D01*
X45757Y-46901D01*
X45422Y-46901D01*
X45360Y-46963D01*
X45360Y-47077D01*
X45398Y-47169D01*
X45468Y-47239D01*
X45560Y-47278D01*
X45659Y-47278D01*
X45694Y-47278D01*
X45757Y-47215D01*
X45757Y-51216D01*
X42878Y-51216D01*
X42878Y-48659D01*
X44774Y-46762D01*
X44774Y-46762D01*
X44774Y-46762D01*
X44978Y-46559D01*
X45386Y-46559D01*
X45360Y-46624D01*
X45360Y-46738D01*
X45422Y-46801D01*
X45757Y-46801D01*
X45757Y-46793D01*
X45857Y-46793D01*
X45857Y-46801D01*
X46191Y-46801D01*
X46254Y-46738D01*
X46254Y-46704D01*
X46422Y-46704D01*
X46579Y-46640D01*
X46698Y-46520D01*
X46763Y-46364D01*
X46763Y-46195D01*
X46699Y-46039D01*
X46579Y-45919D01*
X46423Y-45854D01*
X46254Y-45854D01*
X46166Y-45890D01*
X46145Y-45870D01*
X46054Y-45832D01*
X45954Y-45832D01*
X45560Y-45832D01*
X45468Y-45870D01*
X45398Y-45940D01*
X45373Y-45999D01*
X44862Y-45999D01*
X44755Y-46020D01*
X44724Y-46040D01*
X44664Y-46081D01*
X44576Y-46168D01*
X42996Y-44588D01*
X42996Y-44553D01*
X43076Y-44473D01*
X43141Y-44317D01*
X43141Y-44316D01*
X43189Y-44364D01*
X43281Y-44402D01*
X43380Y-44402D01*
X43930Y-44402D01*
X44022Y-44365D01*
X44093Y-44294D01*
X44131Y-44202D01*
X44131Y-44103D01*
X44131Y-44103D01*
X44160Y-44174D01*
X44308Y-44322D01*
X44501Y-44402D01*
X44710Y-44403D01*
X44903Y-44323D01*
X45051Y-44175D01*
X45106Y-44042D01*
X45160Y-44174D01*
X45308Y-44322D01*
X45501Y-44402D01*
X45710Y-44403D01*
X45903Y-44323D01*
X46051Y-44175D01*
X46106Y-44042D01*
X46160Y-44174D01*
X46308Y-44322D01*
X46501Y-44402D01*
X46710Y-44403D01*
X46806Y-44363D01*
X46806Y-44470D01*
X46478Y-44798D01*
X45202Y-44798D01*
X45122Y-44718D01*
X44966Y-44653D01*
X44797Y-44653D01*
X44641Y-44718D01*
X44521Y-44837D01*
X44456Y-44993D01*
X44456Y-45162D01*
X44521Y-45319D01*
X44640Y-45438D01*
X44796Y-45503D01*
X44853Y-45503D01*
X44915Y-45653D01*
X45034Y-45773D01*
X45190Y-45838D01*
X45359Y-45838D01*
X45516Y-45773D01*
X45596Y-45693D01*
X46929Y-45693D01*
X47036Y-45672D01*
X47036Y-45672D01*
X47127Y-45611D01*
X47569Y-45169D01*
X47682Y-45169D01*
X47838Y-45104D01*
X47958Y-44985D01*
X48023Y-44829D01*
X48023Y-44659D01*
X47958Y-44503D01*
X47839Y-44384D01*
X47798Y-44366D01*
X47903Y-44323D01*
X48051Y-44175D01*
X48106Y-44042D01*
X48160Y-44174D01*
X48308Y-44322D01*
X48501Y-44402D01*
X48710Y-44403D01*
X48903Y-44323D01*
X49051Y-44175D01*
X49106Y-44042D01*
X49160Y-44174D01*
X49308Y-44322D01*
X49501Y-44402D01*
X49710Y-44403D01*
X49903Y-44323D01*
X50051Y-44175D01*
X50106Y-44042D01*
X50160Y-44174D01*
X50308Y-44322D01*
X50501Y-44402D01*
X50710Y-44403D01*
X50903Y-44323D01*
X51051Y-44175D01*
X51131Y-43982D01*
X51131Y-43773D01*
X51051Y-43580D01*
X50904Y-43433D01*
X50771Y-43377D01*
X50903Y-43323D01*
X51051Y-43175D01*
X51131Y-42982D01*
X51131Y-42773D01*
X51051Y-42580D01*
X50904Y-42433D01*
X50771Y-42377D01*
X50903Y-42323D01*
X51051Y-42175D01*
X51131Y-41982D01*
X51131Y-41773D01*
X51051Y-41580D01*
X50904Y-41433D01*
X50777Y-41380D01*
X50879Y-41338D01*
X50903Y-41245D01*
X50606Y-40948D01*
X50535Y-41019D01*
X50535Y-40877D01*
X50238Y-40580D01*
X50145Y-40605D01*
X50109Y-40708D01*
X50066Y-40605D01*
X49974Y-40580D01*
X49677Y-40877D01*
X49974Y-41175D01*
X50066Y-41150D01*
X50103Y-41047D01*
X50145Y-41150D01*
X50238Y-41175D01*
X50535Y-40877D01*
X50535Y-41019D01*
X50309Y-41245D01*
X50333Y-41338D01*
X50443Y-41377D01*
X50309Y-41432D01*
X50161Y-41580D01*
X50106Y-41713D01*
X50051Y-41580D01*
X49904Y-41433D01*
X49777Y-41380D01*
X49879Y-41338D01*
X49903Y-41245D01*
X49606Y-40948D01*
X49309Y-41245D01*
X49333Y-41338D01*
X49443Y-41377D01*
X49309Y-41432D01*
X49161Y-41580D01*
X49106Y-41713D01*
X49051Y-41580D01*
X48904Y-41433D01*
X48771Y-41377D01*
X48903Y-41323D01*
X49051Y-41175D01*
X49103Y-41049D01*
X49145Y-41150D01*
X49238Y-41175D01*
X49535Y-40877D01*
X49238Y-40580D01*
X49145Y-40605D01*
X49107Y-40715D01*
X49051Y-40580D01*
X48904Y-40433D01*
X48889Y-40427D01*
X49330Y-40427D01*
X49309Y-40510D01*
X49606Y-40807D01*
X49903Y-40510D01*
X49881Y-40427D01*
X50330Y-40427D01*
X50309Y-40510D01*
X50606Y-40807D01*
X50903Y-40510D01*
X50881Y-40427D01*
X51550Y-40427D01*
X51539Y-40438D01*
X51474Y-40594D01*
X51474Y-40763D01*
X51539Y-40919D01*
X51658Y-41039D01*
X51734Y-41070D01*
X51718Y-41110D01*
X51718Y-41210D01*
X51718Y-41564D01*
X51747Y-41633D01*
X51718Y-41703D01*
X51718Y-41817D01*
X51780Y-41879D01*
X52115Y-41879D01*
X52115Y-41871D01*
X52215Y-41871D01*
X52215Y-41879D01*
X52549Y-41879D01*
X52612Y-41817D01*
X52612Y-41703D01*
X52583Y-41633D01*
X52612Y-41564D01*
X52612Y-41465D01*
X52612Y-41111D01*
X52574Y-41019D01*
X52504Y-40949D01*
X52440Y-40922D01*
X52440Y-40922D01*
X52427Y-40855D01*
X52424Y-40837D01*
X52424Y-40837D01*
X52363Y-40746D01*
X52324Y-40708D01*
X52324Y-40594D01*
X52260Y-40438D01*
X52248Y-40427D01*
X54175Y-40427D01*
X54144Y-40501D01*
X54144Y-40601D01*
X54144Y-41151D01*
X54182Y-41243D01*
X54252Y-41313D01*
X54344Y-41351D01*
X54369Y-41351D01*
X54369Y-41564D01*
X53507Y-42426D01*
X53297Y-42426D01*
X53182Y-42449D01*
X53112Y-42495D01*
X53060Y-42369D01*
X52926Y-42235D01*
X52752Y-42162D01*
X52609Y-42162D01*
X52612Y-42156D01*
X52612Y-42042D01*
X52549Y-41979D01*
X52215Y-41979D01*
X52215Y-42294D01*
X52272Y-42351D01*
X52255Y-42368D01*
X52182Y-42542D01*
X52182Y-42731D01*
X52254Y-42906D01*
X52388Y-43040D01*
X52508Y-43090D01*
X52465Y-43134D01*
X52400Y-43231D01*
X52377Y-43346D01*
X52377Y-44639D01*
X52317Y-44699D01*
X52252Y-44856D01*
X52252Y-45025D01*
X52316Y-45181D01*
X52436Y-45301D01*
X52534Y-45341D01*
X52534Y-45362D01*
X52415Y-45362D01*
X52259Y-45426D01*
X52139Y-45546D01*
X52115Y-45605D01*
X52115Y-42294D01*
X52115Y-41979D01*
X51780Y-41979D01*
X51718Y-42042D01*
X51718Y-42156D01*
X51756Y-42248D01*
X51826Y-42318D01*
X51918Y-42356D01*
X52017Y-42356D01*
X52052Y-42356D01*
X52115Y-42294D01*
X52115Y-45605D01*
X52075Y-45702D01*
X52074Y-45871D01*
X52139Y-46027D01*
X52200Y-46088D01*
X52200Y-46454D01*
X52183Y-46479D01*
X52160Y-46594D01*
X52160Y-48655D01*
X52100Y-48715D01*
X52035Y-48871D01*
X52035Y-49040D01*
X52100Y-49197D01*
X52219Y-49316D01*
X52375Y-49381D01*
X52534Y-49381D01*
X52534Y-51403D01*
X52529Y-51403D01*
X52175Y-51403D01*
X52106Y-51432D01*
X52036Y-51403D01*
X51922Y-51403D01*
X51860Y-51465D01*
X51860Y-51800D01*
X51868Y-51800D01*
X51868Y-51900D01*
X51860Y-51900D01*
X51860Y-52234D01*
X51922Y-52297D01*
X52036Y-52297D01*
X52106Y-52268D01*
X52175Y-52297D01*
X52274Y-52297D01*
X52534Y-52297D01*
X52534Y-53403D01*
X52478Y-53487D01*
X52455Y-53602D01*
X52455Y-54758D01*
X52395Y-54817D01*
X52330Y-54974D01*
X52330Y-55059D01*
X51760Y-55630D01*
X51760Y-52234D01*
X51760Y-51900D01*
X51760Y-51800D01*
X51760Y-51465D01*
X51697Y-51403D01*
X51583Y-51403D01*
X51538Y-51422D01*
X51538Y-45752D01*
X51465Y-45577D01*
X51332Y-45444D01*
X51157Y-45371D01*
X51136Y-45371D01*
X51136Y-40953D01*
X51124Y-40745D01*
X51066Y-40605D01*
X50974Y-40580D01*
X50677Y-40877D01*
X50974Y-41175D01*
X51066Y-41150D01*
X51136Y-40953D01*
X51136Y-45371D01*
X50968Y-45371D01*
X50794Y-45443D01*
X50660Y-45577D01*
X50588Y-45751D01*
X50587Y-45940D01*
X50660Y-46115D01*
X50793Y-46248D01*
X50968Y-46321D01*
X51157Y-46321D01*
X51331Y-46249D01*
X51465Y-46115D01*
X51537Y-45941D01*
X51538Y-45752D01*
X51538Y-51422D01*
X51491Y-51441D01*
X51479Y-51454D01*
X51479Y-49787D01*
X51406Y-49613D01*
X51273Y-49479D01*
X51149Y-49427D01*
X51149Y-47111D01*
X51137Y-46922D01*
X51088Y-46804D01*
X51000Y-46786D01*
X50930Y-46857D01*
X50740Y-47047D01*
X51000Y-47308D01*
X51088Y-47289D01*
X51149Y-47111D01*
X51149Y-49427D01*
X51098Y-49406D01*
X50930Y-49406D01*
X50930Y-47378D01*
X50669Y-47117D01*
X50408Y-47378D01*
X50426Y-47466D01*
X50605Y-47527D01*
X50794Y-47515D01*
X50911Y-47466D01*
X50930Y-47378D01*
X50930Y-49406D01*
X50909Y-49406D01*
X50735Y-49478D01*
X50601Y-49612D01*
X50529Y-49786D01*
X50528Y-49975D01*
X50601Y-50150D01*
X50734Y-50284D01*
X50909Y-50356D01*
X51098Y-50356D01*
X51272Y-50284D01*
X51406Y-50151D01*
X51478Y-49976D01*
X51479Y-49787D01*
X51479Y-51454D01*
X51421Y-51511D01*
X51383Y-51603D01*
X51383Y-51702D01*
X51383Y-51737D01*
X51445Y-51800D01*
X51760Y-51800D01*
X51760Y-51900D01*
X51445Y-51900D01*
X51383Y-51962D01*
X51383Y-51997D01*
X51383Y-52097D01*
X51421Y-52189D01*
X51491Y-52259D01*
X51583Y-52297D01*
X51697Y-52297D01*
X51760Y-52234D01*
X51760Y-55630D01*
X51174Y-56215D01*
X48352Y-56215D01*
X48292Y-56155D01*
X48136Y-56090D01*
X47967Y-56090D01*
X47810Y-56155D01*
X47691Y-56274D01*
X47626Y-56430D01*
X47626Y-56599D01*
X47690Y-56756D01*
X47810Y-56875D01*
X47966Y-56940D01*
X48135Y-56940D01*
X48291Y-56876D01*
X48352Y-56815D01*
X51299Y-56815D01*
X51299Y-56815D01*
X51414Y-56792D01*
X51414Y-56792D01*
X51511Y-56727D01*
X52264Y-55974D01*
X52274Y-55997D01*
X52407Y-56130D01*
X52582Y-56203D01*
X52771Y-56203D01*
X52945Y-56131D01*
X53079Y-55997D01*
X53152Y-55823D01*
X53152Y-55634D01*
X53080Y-55459D01*
X53018Y-55397D01*
X53115Y-55300D01*
X53180Y-55143D01*
X53180Y-54974D01*
X53116Y-54818D01*
X53055Y-54758D01*
X53055Y-54010D01*
X53060Y-54010D01*
X53414Y-54010D01*
X53484Y-53981D01*
X53553Y-54009D01*
X53652Y-54010D01*
X53748Y-54010D01*
X53748Y-54025D01*
X53443Y-54329D01*
X53383Y-54420D01*
X53361Y-54527D01*
X53361Y-54757D01*
X53281Y-54837D01*
X53216Y-54993D01*
X53216Y-55162D01*
X53281Y-55319D01*
X53400Y-55438D01*
X53556Y-55503D01*
X53599Y-55503D01*
X53599Y-55507D01*
X53671Y-55682D01*
X53805Y-55815D01*
X53979Y-55888D01*
X54168Y-55888D01*
X54343Y-55816D01*
X54477Y-55682D01*
X54549Y-55508D01*
X54549Y-55319D01*
X54477Y-55144D01*
X54354Y-55021D01*
X54354Y-54919D01*
X54419Y-54854D01*
X54532Y-54854D01*
X54689Y-54789D01*
X54808Y-54670D01*
X54873Y-54514D01*
X54873Y-54344D01*
X54809Y-54188D01*
X54728Y-54108D01*
X54728Y-53838D01*
X54711Y-53749D01*
X54707Y-53731D01*
X54707Y-53731D01*
X54646Y-53640D01*
X54433Y-53427D01*
X54433Y-51462D01*
X54513Y-51382D01*
X54578Y-51226D01*
X54578Y-51057D01*
X54532Y-50945D01*
X54532Y-49542D01*
X54575Y-49499D01*
X54575Y-49184D01*
X54568Y-49184D01*
X54568Y-49084D01*
X54575Y-49084D01*
X54575Y-49076D01*
X54675Y-49076D01*
X54675Y-49084D01*
X55010Y-49084D01*
X55072Y-49022D01*
X55073Y-48908D01*
X55044Y-48838D01*
X55072Y-48769D01*
X55073Y-48670D01*
X55073Y-48316D01*
X55035Y-48224D01*
X54964Y-48153D01*
X54872Y-48115D01*
X54773Y-48115D01*
X54633Y-48115D01*
X54657Y-48057D01*
X54657Y-47888D01*
X54592Y-47732D01*
X54532Y-47671D01*
X54532Y-47480D01*
X54532Y-47165D01*
X54509Y-47050D01*
X54492Y-47025D01*
X54492Y-45163D01*
X54553Y-45103D01*
X54617Y-44947D01*
X54617Y-44861D01*
X55307Y-44171D01*
X55244Y-44324D01*
X55244Y-44493D01*
X55308Y-44649D01*
X55428Y-44769D01*
X55584Y-44834D01*
X55585Y-44834D01*
X55585Y-45210D01*
X55525Y-45270D01*
X55460Y-45426D01*
X55460Y-45595D01*
X55525Y-45752D01*
X55644Y-45871D01*
X55800Y-45936D01*
X55969Y-45936D01*
X56126Y-45872D01*
X56245Y-45752D01*
X56310Y-45596D01*
X56310Y-45427D01*
X56246Y-45271D01*
X56185Y-45210D01*
X56185Y-44625D01*
X56162Y-44511D01*
X56097Y-44413D01*
X56097Y-44413D01*
X56094Y-44410D01*
X56094Y-44325D01*
X56029Y-44169D01*
X55910Y-44049D01*
X55754Y-43984D01*
X55585Y-43984D01*
X55431Y-44047D01*
X56881Y-42597D01*
X56881Y-42597D01*
X56946Y-42500D01*
X56969Y-42385D01*
X56969Y-42385D01*
X56969Y-41269D01*
X57114Y-41124D01*
X57194Y-40931D01*
X57194Y-40722D01*
X57114Y-40529D01*
X57012Y-40427D01*
X58087Y-40427D01*
X57948Y-40565D01*
X57788Y-40951D01*
X57788Y-41369D01*
X57947Y-41755D01*
X58243Y-42051D01*
X58628Y-42211D01*
X59046Y-42211D01*
X59432Y-42052D01*
X59572Y-41912D01*
X59572Y-58087D01*
M02*
