G04 (created by PCBNEW (2013-may-18)-stable) date Wed 21 Oct 2015 08:45:46 PM EDT*
%MOIN*%
G04 Gerber Fmt 3.4, Leading zero omitted, Abs format*
%FSLAX34Y34*%
G01*
G70*
G90*
G04 APERTURE LIST*
%ADD10C,0.00590551*%
%ADD11R,0.055X0.055*%
%ADD12C,0.055*%
%ADD13R,0.06X0.06*%
%ADD14C,0.06*%
%ADD15R,0.0394X0.0354*%
%ADD16R,0.0354X0.0394*%
%ADD17R,0.1X0.1*%
%ADD18C,0.1*%
%ADD19C,0.045*%
%ADD20C,0.16*%
G04 APERTURE END LIST*
G54D10*
G54D11*
X43606Y-40877D03*
G54D12*
X44606Y-40877D03*
X45606Y-40877D03*
X46606Y-40877D03*
X47606Y-40877D03*
X48606Y-40877D03*
X49606Y-40877D03*
X50606Y-40877D03*
G54D11*
X43606Y-41877D03*
G54D12*
X44606Y-41877D03*
X45606Y-41877D03*
X46606Y-41877D03*
X47606Y-41877D03*
X48606Y-41877D03*
X49606Y-41877D03*
X50606Y-41877D03*
G54D11*
X43606Y-42877D03*
G54D12*
X44606Y-42877D03*
X45606Y-42877D03*
X46606Y-42877D03*
X47606Y-42877D03*
X48606Y-42877D03*
X49606Y-42877D03*
X50606Y-42877D03*
G54D11*
X43606Y-43877D03*
G54D12*
X44606Y-43877D03*
X45606Y-43877D03*
X46606Y-43877D03*
X47606Y-43877D03*
X48606Y-43877D03*
X49606Y-43877D03*
X50606Y-43877D03*
G54D11*
X54669Y-40826D03*
G54D12*
X55669Y-40826D03*
X56669Y-40826D03*
G54D13*
X58759Y-56133D03*
G54D14*
X58759Y-57133D03*
G54D13*
X41818Y-56295D03*
G54D14*
X40818Y-56295D03*
X41818Y-55295D03*
X40818Y-55295D03*
X41818Y-54295D03*
X40818Y-54295D03*
X41818Y-53295D03*
X40818Y-53295D03*
X41818Y-52295D03*
X40818Y-52295D03*
X41818Y-51295D03*
X40818Y-51295D03*
X41818Y-50295D03*
X40818Y-50295D03*
X41818Y-49295D03*
X40818Y-49295D03*
X41818Y-48295D03*
X40818Y-48295D03*
X41818Y-47295D03*
X40818Y-47295D03*
X41818Y-46295D03*
X40818Y-46295D03*
X41818Y-45295D03*
X40818Y-45295D03*
X41818Y-44295D03*
X40818Y-44295D03*
G54D15*
X53208Y-45589D03*
X53208Y-46181D03*
X52165Y-41337D03*
X52165Y-41929D03*
G54D16*
X49369Y-45964D03*
X49961Y-45964D03*
G54D15*
X50452Y-48858D03*
X50452Y-48266D03*
X45807Y-46259D03*
X45807Y-46851D03*
X47795Y-45963D03*
X47795Y-46555D03*
X53661Y-43759D03*
X53661Y-44351D03*
X54625Y-49134D03*
X54625Y-48542D03*
X53366Y-48366D03*
X53366Y-47774D03*
G54D16*
X53089Y-45000D03*
X53681Y-45000D03*
X53188Y-51476D03*
X53780Y-51476D03*
X53188Y-53562D03*
X53780Y-53562D03*
X52402Y-51850D03*
X51810Y-51850D03*
G54D17*
X57992Y-47984D03*
G54D18*
X57992Y-45984D03*
X57992Y-43984D03*
G54D17*
X57992Y-54381D03*
G54D18*
X57992Y-52381D03*
X57992Y-50381D03*
G54D19*
X52657Y-42637D03*
X51003Y-49881D03*
X51062Y-45846D03*
X53582Y-56811D03*
X50669Y-47047D03*
X49035Y-49822D03*
X52677Y-55728D03*
X54074Y-55413D03*
G54D20*
X41161Y-41161D03*
X58838Y-58838D03*
X58838Y-41161D03*
X41161Y-58838D03*
M02*
